<svg id="Capa_1" enable-background="new 0 0 512 512" height="512" viewBox="0 0 512 512" width="512" xmlns="http://www.w3.org/2000/svg"><g><path d="m256 0-202.5 75v161.855c0 61.834 19.306 120.773 55.831 170.444 35.782 48.662 84.875 84.331 141.974 103.153l4.695 1.548 4.696-1.548c57.098-18.822 106.192-54.491 141.974-103.153 36.524-49.671 55.83-108.61 55.83-170.444v-161.855zm172.5 236.855c0 110.012-69.11 207.243-172.5 243.508-103.39-36.266-172.5-133.496-172.5-243.508v-140.975l172.5-63.889 172.5 63.889z" fill="#990e94"/><path d="m113.5 236.855c0 78.575 63.925 142.5 142.5 142.5s142.5-63.925 142.5-142.5-63.925-142.5-142.5-142.5-142.5 63.925-142.5 142.5zm79.565 93.206c16.699-16.289 39.339-25.706 62.935-25.706s46.235 9.417 62.935 25.706c-17.974 12.175-39.638 19.294-62.935 19.294s-44.961-7.119-62.935-19.294zm175.435-93.206c0 27.926-10.232 53.505-27.139 73.194-22.387-22.594-53.211-35.694-85.361-35.694s-62.974 13.1-85.361 35.694c-16.907-19.689-27.139-45.268-27.139-73.194 0-62.033 50.467-112.5 112.5-112.5s112.5 50.467 112.5 112.5z" fill="#990e94"/><path d="m203.5 206.855c0 28.949 23.551 52.5 52.5 52.5s52.5-23.551 52.5-52.5-23.551-52.5-52.5-52.5-52.5 23.551-52.5 52.5zm75 0c0 12.407-10.093 22.5-22.5 22.5s-22.5-10.093-22.5-22.5 10.093-22.5 22.5-22.5 22.5 10.093 22.5 22.5z" fill="#990e94"/></g></svg>