<svg width="1000" height="1000" xmlns="http://www.w3.org/2000/svg"><defs><radialGradient cx="14.931%" cy="100.347%" fx="14.931%" fy="100.347%" r="127.775%" id="a"><stop stop-color="#FFB140" offset="0%"/><stop stop-color="#FF5445" offset="25.59%"/><stop stop-color="#FC2B82" offset="59.9%"/><stop stop-color="#8E40B7" offset="100%"/></radialGradient></defs><g fill="none" fill-rule="evenodd"><path d="M11.584 0H4.415A4.42 4.42 0 000 4.415v7.17A4.42 4.42 0 004.415 16h7.17A4.42 4.42 0 0016 11.585v-7.17A4.42 4.42 0 0011.584 0zm2.996 11.585a3 3 0 01-2.995 2.995h-7.17a3 3 0 01-2.995-2.995v-7.17A3 3 0 014.415 1.42h7.17a3 3 0 012.995 2.995v7.17zM8 3.877A4.127 4.127 0 003.877 8 4.127 4.127 0 008 12.123 4.127 4.127 0 0012.123 8 4.127 4.127 0 008 3.877zm0 6.826A2.706 2.706 0 015.297 8 2.706 2.706 0 018 5.297 2.706 2.706 0 0110.703 8 2.706 2.706 0 018 10.703zm4.296-8.03a1.045 1.045 0 00-1.041 1.042c0 .273.111.542.305.736.193.193.462.305.736.305.274 0 .542-.112.736-.305.194-.194.305-.463.305-.736 0-.275-.111-.544-.305-.737a1.046 1.046 0 00-.736-.304z" fill="url(#a)" transform="translate(9 9)"/><path d="M58.915 21.644a1.096 1.096 0 00-.054-.104c-.278-.5-.808-1.114-1.591-1.841l-.017-.017-.008-.008-.008-.008h-.009c-.355-.34-.58-.567-.674-.684-.173-.222-.212-.447-.117-.674.066-.173.316-.536.75-1.092.227-.294.408-.53.54-.708.962-1.277 1.378-2.093 1.25-2.449l-.05-.083c-.032-.05-.119-.096-.257-.137a1.312 1.312 0 00-.534-.021l-2.399.016a.311.311 0 00-.166.005l-.109.025-.041.02-.034.026a.37.37 0 00-.091.087.572.572 0 00-.083.146 13.603 13.603 0 01-.892 1.874c-.205.345-.394.643-.566.896a4.309 4.309 0 01-.433.558c-.117.12-.223.215-.317.287-.095.072-.167.103-.217.092a6.104 6.104 0 01-.141-.034.554.554 0 01-.188-.204.914.914 0 01-.096-.325 3.582 3.582 0 01-.029-.337 7.048 7.048 0 01.005-.4c.005-.172.008-.289.008-.35 0-.21.004-.44.012-.687l.021-.587c.006-.145.008-.297.008-.458 0-.162-.01-.288-.029-.38a1.297 1.297 0 00-.087-.266.449.449 0 00-.17-.2.963.963 0 00-.28-.113 5.543 5.543 0 00-1.125-.108c-1.032-.01-1.696.056-1.99.2a1.122 1.122 0 00-.317.25c-.1.122-.114.189-.042.2.333.05.57.17.708.358l.05.1c.04.072.078.2.117.383.039.184.064.386.075.608.028.406.028.753 0 1.042-.028.289-.054.513-.08.674a1.351 1.351 0 01-.212.575.143.143 0 01-.041.042.624.624 0 01-.225.042c-.078 0-.172-.04-.283-.117a1.998 1.998 0 01-.346-.32 4.287 4.287 0 01-.404-.571A9.958 9.958 0 0147.24 16l-.133-.241a20.781 20.781 0 01-.341-.68 13.09 13.09 0 01-.384-.862.55.55 0 00-.2-.266l-.041-.025a.884.884 0 00-.325-.125l-2.283.016c-.233 0-.391.053-.475.159l-.033.05a.27.27 0 00-.025.133c0 .061.017.136.05.225.333.783.696 1.538 1.087 2.266.392.727.732 1.313 1.02 1.757.29.445.584.864.884 1.258.3.395.498.647.595.758.097.112.174.195.23.25l.208.2c.133.134.329.293.587.48.258.185.544.369.858.55.314.18.679.327 1.095.44.417.115.822.16 1.217.138h.958c.194-.017.341-.078.441-.183l.033-.042a.552.552 0 00.063-.154c.02-.07.029-.146.029-.229a2.745 2.745 0 01.054-.645c.042-.192.089-.336.142-.434a1.065 1.065 0 01.32-.366.544.544 0 01.067-.03c.133-.044.29 0 .471.13.18.13.35.292.508.483.158.192.349.407.57.646.223.239.417.416.584.533l.166.1c.112.067.256.128.434.183.177.056.333.07.466.042l2.133-.033c.21 0 .375-.035.491-.105.117-.07.186-.146.209-.229a.645.645 0 00.004-.283 1.046 1.046 0 00-.059-.22z" fill="#4C75A3"/><path d="M81.742 17.489h1.644v6.77c0 .133.108.241.242.241h2.788a.242.242 0 00.242-.242v-6.737h1.89a.242.242 0 00.24-.214l.288-2.492a.242.242 0 00-.24-.27h-2.178v-1.562c0-.471.254-.71.754-.71h1.423a.242.242 0 00.242-.242V9.744a.242.242 0 00-.242-.242h-1.962c-.013 0-.044-.002-.09-.002-.34 0-1.523.067-2.458.927-1.035.952-.891 2.093-.857 2.291v1.827h-1.726a.242.242 0 00-.242.242v2.46c0 .134.108.242.242.242z" fill="#3D5B98"/><path d="M125.915 12.906c-.541-.643-1.54-.906-3.45-.906h-6.93c-1.953 0-2.97.28-3.51.965-.525.668-.525 1.652-.525 3.015v2.597c0 2.64.624 3.98 4.035 3.98h6.93c1.656 0 2.573-.232 3.167-.8.608-.583.868-1.534.868-3.18V15.98c0-1.437-.04-2.427-.585-3.074zm-4.785 4.73l-3.147 1.645a.483.483 0 01-.708-.428v-3.28a.484.484 0 01.707-.429l3.147 1.634a.484.484 0 01.001.859z" fill="#E12021"/><path d="M25.9 69.933c-1.894 0-3.673-.484-5.22-1.333l-5.98 1.9 1.95-5.75a10.607 10.607 0 01-1.55-5.533c0-5.919 4.835-10.717 10.8-10.717 5.965 0 10.8 4.798 10.8 10.717 0 5.918-4.835 10.716-10.8 10.716zm0-19.726c-5.007 0-9.08 4.042-9.08 9.01 0 1.971.642 3.797 1.73 5.282l-1.135 3.346 3.49-1.109a9.075 9.075 0 004.995 1.49c5.006 0 9.08-4.041 9.08-9.01 0-4.967-4.074-9.01-9.08-9.01zm5.454 11.478c-.067-.11-.243-.175-.508-.307-.265-.131-1.567-.767-1.809-.854-.243-.088-.42-.132-.596.131s-.684.855-.838 1.03c-.155.175-.309.197-.574.066-.264-.131-1.117-.409-2.129-1.304-.787-.696-1.318-1.555-1.472-1.819-.155-.262-.017-.404.116-.535.119-.118.264-.307.397-.46.132-.154.176-.263.264-.439.089-.175.045-.328-.022-.46-.066-.131-.595-1.424-.816-1.95-.22-.525-.44-.438-.595-.438-.155 0-.331-.022-.508-.022a.977.977 0 00-.706.329c-.243.263-.926.898-.926 2.19 0 1.293.948 2.542 1.08 2.717.133.175 1.832 2.914 4.523 3.966 2.692 1.051 2.692.7 3.177.657.485-.044 1.566-.635 1.787-1.249.22-.614.22-1.14.155-1.25z" fill="#FFF" fill-rule="nonzero"/><path d="M76.985 65.004c-.805.784-1.603 1.555-2.394 2.332-.276.273-.587.423-.984.402-.27-.014-.422-.133-.505-.39-.606-1.88-1.22-3.756-1.823-5.638-.059-.182-.145-.27-.33-.328a391.976 391.976 0 01-4.274-1.334 2.43 2.43 0 01-.628-.29c-.293-.197-.335-.52-.073-.752.242-.215.53-.401.83-.52 1.745-.691 3.499-1.36 5.25-2.035l13.331-5.146c.845-.327 1.495.133 1.407 1.047-.056.584-.208 1.16-.33 1.737-.965 4.556-1.93 9.112-2.9 13.667-.231 1.082-.99 1.364-1.88.708-1.492-1.099-2.981-2.201-4.47-3.302l-.227-.158zm-3.346 1.383l.05-.013c.01-.043.023-.085.026-.127.096-1.033.197-2.065.28-3.1a.759.759 0 01.271-.549c1.374-1.229 2.74-2.465 4.109-3.7 1.515-1.366 3.03-2.73 4.54-4.102.093-.085.132-.229.196-.346-.142-.015-.294-.072-.423-.039-.177.046-.343.148-.5.247-3.344 2.106-6.685 4.215-10.03 6.317-.19.119-.225.22-.153.427.247.709.471 1.424.704 2.137l.93 2.848z" fill="#FFF"/><path d="M129.335 51.13c.135-.123.23-.14.702-.126.247.009.606.037.804.06.994.123 1.8.36 2.68.785.867.42 1.423.817 2.158 1.54.687.682 1.07 1.199 1.474 2.001.564 1.12.885 2.45.94 3.915.02.5.006.612-.11.754-.22.278-.703.232-.867-.08-.053-.102-.068-.191-.084-.592a10.172 10.172 0 00-.16-1.484c-.341-1.859-1.243-3.344-2.683-4.409-1.2-.89-2.44-1.325-4.065-1.419-.55-.03-.645-.05-.77-.145-.23-.18-.242-.603-.019-.8zm3.446 3.678c-.58-.343-1.44-.596-2.223-.66-.284-.023-.44-.08-.546-.202a.516.516 0 01-.044-.646c.15-.23.381-.268 1.072-.166 1.756.255 3.115 1.06 4.005 2.368.502.736.813 1.602.92 2.53.037.34.037.96-.004 1.062a.649.649 0 01-.262.283c-.113.057-.354.051-.486-.017-.222-.111-.29-.289-.29-.768 0-.74-.193-1.52-.528-2.124a4.369 4.369 0 00-1.614-1.66zm.978 3.806c-.17.154-.486.16-.677.015-.138-.104-.182-.212-.214-.506-.037-.39-.106-.665-.226-.92-.254-.539-.702-.819-1.46-.91-.355-.043-.463-.083-.578-.218a.529.529 0 01.162-.8c.11-.052.155-.059.399-.044.15.008.373.034.491.06.57.12 1.007.334 1.38.679.48.449.743.99.859 1.77.078.51.046.709-.136.874zm4.32 7.502c-.214.545-1.047 1.568-1.628 2.004-.526.394-.9.545-1.392.57-.404.018-.572-.016-1.09-.227-4.06-1.653-7.301-4.12-9.875-7.51-1.344-1.77-2.368-3.606-3.069-5.512-.406-1.11-.426-1.592-.091-2.161.145-.24.76-.834 1.21-1.164.745-.549 1.09-.751 1.363-.81.189-.04.515-.008.723.067.1.034.258.114.347.171.55.36 2.08 2.293 2.58 3.258.286.552.381.96.291 1.262-.093.325-.246.497-.93 1.043-.276.22-.534.445-.573.505-.105.148-.189.44-.189.645.003.478.316 1.342.726 2.008.319.517.887 1.179 1.452 1.687.662.6 1.246 1.009 1.906 1.331.846.417 1.365.522 1.743.348.096-.042.197-.1.228-.126.03-.025.252-.294.495-.59.468-.583.576-.677.897-.785.408-.138.824-.101 1.243.11a17.5 17.5 0 011.46.897c.59.408 1.851 1.425 2.022 1.628.301.366.354.834.15 1.351z" fill="#FFF" fill-rule="nonzero"/><path d="M576.905 29.764l-3.63-3.19a.312.312 0 00-.33-.046.265.265 0 00-.18.264v2.042h-9.463a.3.3 0 00-.217.082.279.279 0 00-.085.21v1.75c0 .085.028.155.085.21a.3.3 0 00.217.081h9.463v2.042c0 .122.06.21.18.264.12.05.23.03.331-.054l3.63-3.227a.293.293 0 00.094-.219.283.283 0 00-.095-.21z" fill="#990e94" fill-rule="nonzero"/><g fill="#990e94" fill-rule="nonzero"><path d="M168.545 65.613H111.83c-1.01 0-1.83.82-1.83 1.83v80.499c0 1.01.82 1.83 1.83 1.83h56.715c1.01 0 1.83-.82 1.83-1.83v-80.5a1.83 1.83 0 00-1.83-1.829zm-1.83 80.5H113.66v-76.84h53.056v76.84z"/><path xmlns="http://www.w3.org/2000/svg" d="M161.227 74.76h-42.08c-1.01 0-1.829.82-1.829 1.83v14.637c0 1.01.82 1.83 1.83 1.83h42.079c1.01 0 1.83-.82 1.83-1.83V76.59a1.83 1.83 0 00-1.83-1.83zm-1.83 14.637h-38.42V78.42h38.42v10.977zM128.295 129.647h-9.147c-1.01 0-1.83.819-1.83 1.83v9.147c0 1.01.82 1.83 1.83 1.83h9.147c1.01 0 1.83-.82 1.83-1.83v-9.148a1.83 1.83 0 00-1.83-1.83zm-1.83 9.147h-5.488v-5.488h5.489v5.488zM144.761 129.647h-9.147c-1.01 0-1.83.819-1.83 1.83v9.147c0 1.01.82 1.83 1.83 1.83h9.147c1.01 0 1.83-.82 1.83-1.83v-9.148a1.83 1.83 0 00-1.83-1.83zm-1.83 9.147h-5.488v-5.488h5.489v5.488zM128.295 113.18h-9.147c-1.01 0-1.83.82-1.83 1.83v9.148c0 1.01.82 1.83 1.83 1.83h9.147c1.01 0 1.83-.82 1.83-1.83v-9.148a1.83 1.83 0 00-1.83-1.83zm-1.83 9.148h-5.488v-5.488h5.489v5.488zM144.761 113.18h-9.147c-1.01 0-1.83.82-1.83 1.83v9.148c0 1.01.82 1.83 1.83 1.83h9.147c1.01 0 1.83-.82 1.83-1.83v-9.148a1.83 1.83 0 00-1.83-1.83zm-1.83 9.148h-5.488v-5.488h5.489v5.488zM128.295 96.715h-9.147c-1.01 0-1.83.82-1.83 1.83v9.147c0 1.01.82 1.83 1.83 1.83h9.147c1.01 0 1.83-.82 1.83-1.83v-9.147a1.83 1.83 0 00-1.83-1.83zm-1.83 9.148h-5.488v-5.489h5.489v5.489zM144.761 96.715h-9.147c-1.01 0-1.83.82-1.83 1.83v9.147c0 1.01.82 1.83 1.83 1.83h9.147c1.01 0 1.83-.82 1.83-1.83v-9.147a1.83 1.83 0 00-1.83-1.83zm-1.83 9.148h-5.488v-5.489h5.489v5.489zM161.227 96.715h-9.148c-1.01 0-1.83.82-1.83 1.83v9.147c0 1.01.82 1.83 1.83 1.83h9.148c1.01 0 1.83-.82 1.83-1.83v-9.147a1.83 1.83 0 00-1.83-1.83zm-1.83 9.148h-5.488v-5.489h5.488v5.489zM161.227 113.18h-9.148c-1.01 0-1.83.82-1.83 1.83v25.614c0 1.01.82 1.83 1.83 1.83h9.148c1.01 0 1.83-.82 1.83-1.83V115.01a1.83 1.83 0 00-1.83-1.83zm-1.83 25.614h-5.488V116.84h5.488v21.954z"/><path xmlns="http://www.w3.org/2000/svg" d="M152.079 82.079h3.659v3.659h-3.659zM144.761 82.079h3.659v3.659h-3.659zM137.443 82.079h3.659v3.659h-3.659zM163.056 50.977h34.761v3.659h-34.761zM163.056 58.295h34.761v3.659h-34.761zM203.306 65.613v20.125h-3.66V69.272h-3.658v16.466h-3.66V78.42h-3.658v7.318h-3.66V72.931h-3.658v12.807h-3.66V78.42h-3.659v10.978h32.932V65.612zM190.5 102.204h-5.49v-5.489c0-1.01-.819-1.83-1.829-1.83h-7.318c-1.01 0-1.83.82-1.83 1.83v45.738c.001.362.108.715.308 1.016l3.659 5.488a1.83 1.83 0 003.044 0l3.66-5.488c.2-.301.306-.654.307-1.016v-36.59h3.659v18.295h3.659v-20.125a1.83 1.83 0 00-1.83-1.83zm-9.148 39.7l-1.83 2.745-1.83-2.745v-36.041h3.66v36.041zm0-39.7h-3.66v-3.66h3.66v3.66zM188.67 94.886h18.295v3.659H188.67zM195.988 102.204h10.977v3.659h-10.977zM195.988 109.522h10.977v3.659h-10.977zM195.988 116.84h10.977v3.659h-10.977z"/></g><g fill="#990e94" fill-rule="nonzero"><path d="M217.415 177.05a2.555 2.555 0 00-1.796-.745c-.668 0-1.324.272-1.796.745a2.558 2.558 0 00-.744 1.796c0 .67.272 1.323.744 1.798a2.557 2.557 0 001.796.742c.668 0 1.324-.27 1.796-.742a2.565 2.565 0 00.744-1.798c0-.669-.272-1.324-.744-1.796zM241.37 177.05a2.559 2.559 0 00-1.796-.745c-.668 0-1.324.272-1.796.745a2.558 2.558 0 00-.744 1.796c0 .67.271 1.323.744 1.798a2.557 2.557 0 001.796.742c.668 0 1.323-.27 1.796-.742a2.57 2.57 0 00.744-1.798c0-.669-.272-1.324-.744-1.796zM236.71 190.999a2.54 2.54 0 00-3.11 1.798 6.225 6.225 0 01-6.004 4.616 6.226 6.226 0 01-6.003-4.616 2.54 2.54 0 00-4.908 1.311 11.312 11.312 0 0010.912 8.385c5.106 0 9.593-3.448 10.912-8.384a2.54 2.54 0 00-1.799-3.11zM276.828 137.1a2.55 2.55 0 00-1.796-.744c-.67 0-1.324.27-1.799.744a2.557 2.557 0 00-.741 1.796c0 .668.27 1.324.741 1.796a2.565 2.565 0 001.799.744c.668 0 1.323-.271 1.796-.744a2.56 2.56 0 00.744-1.796 2.56 2.56 0 00-.744-1.796z"/><path d="M318.715 175.598c-5.366-20.025-26.022-31.95-46.046-26.584-6.873 1.841-12.945 5.503-17.687 10.573-7.096-7.557-16.916-11.837-27.386-11.837-20.73 0-37.596 16.866-37.596 37.596 0 20.731 16.866 37.597 37.596 37.597 10.48 0 20.316-4.294 27.414-11.87 7.029 7.453 16.94 11.857 27.398 11.857 3.212 0 6.476-.416 9.722-1.286 20.024-5.365 31.95-26.022 26.585-46.046zm-91.119 42.264c-17.93 0-32.516-14.587-32.516-32.516 0-17.93 14.587-32.516 32.516-32.516 9.282 0 17.975 3.89 24.144 10.736a38.419 38.419 0 00-1.9 2.964c-5.022 8.697-6.355 18.83-3.756 28.53a37.411 37.411 0 005.67 12.052c-6.17 6.855-14.873 10.75-24.158 10.75zm63.219-1.125c-17.318 4.64-35.183-5.674-39.824-22.992-2.248-8.39-1.094-17.152 3.249-24.674a32.996 32.996 0 012.787-4.088c4.3-5.383 10.178-9.246 16.956-11.062a32.455 32.455 0 018.409-1.112c14.355 0 27.527 9.594 31.415 24.104 4.64 17.318-5.674 35.183-22.992 39.824zM233.8 228.698a2.586 2.586 0 00-1.822-.755c-.678 0-1.343.273-1.822.755a2.593 2.593 0 00-.755 1.822 2.6 2.6 0 00.755 1.822c.48.479 1.144.755 1.822.755.678 0 1.343-.276 1.822-.755.48-.482.755-1.145.755-1.822 0-.68-.276-1.343-.755-1.822z"/><path d="M274.958 180.348a5.515 5.515 0 00-6.748-3.896 5.516 5.516 0 00-3.896 6.748 2.542 2.542 0 003.111 1.797 2.54 2.54 0 001.797-3.111.43.43 0 01.829-.223 2.54 2.54 0 104.907-1.315zM297.953 174.187a5.475 5.475 0 00-2.567-3.346 5.474 5.474 0 00-4.181-.55 5.472 5.472 0 00-3.345 2.567 5.473 5.473 0 00-.55 4.181 2.541 2.541 0 004.907-1.315.422.422 0 01.042-.326.42.42 0 01.261-.2.423.423 0 01.326.043c.07.04.161.119.2.26a2.54 2.54 0 104.907-1.314zM295.728 190.127a2.54 2.54 0 00-4.908 1.314 6.064 6.064 0 01-4.283 7.418 6.017 6.017 0 01-4.596-.605 6.016 6.016 0 01-2.822-3.677 2.54 2.54 0 10-4.907 1.315 11.065 11.065 0 005.19 6.762 11.072 11.072 0 008.45 1.113c5.932-1.59 9.465-7.709 7.876-13.64zM274.913 232.088h-1.755a2.568 2.568 0 00-2.559 2.577 2.568 2.568 0 002.559 2.577h1.755a2.568 2.568 0 002.558-2.577 2.568 2.568 0 00-2.558-2.577zM262.314 232.088h-1.755a2.568 2.568 0 00-2.559 2.577 2.568 2.568 0 002.559 2.577h1.755a2.568 2.568 0 002.558-2.577 2.568 2.568 0 00-2.558-2.577zM268.022 237.815a2.568 2.568 0 00-2.577 2.559v1.754a2.568 2.568 0 002.577 2.56 2.568 2.568 0 002.577-2.56v-1.754a2.568 2.568 0 00-2.577-2.559zM268.022 225.216a2.568 2.568 0 00-2.577 2.559v1.754a2.568 2.568 0 002.577 2.56 2.568 2.568 0 002.577-2.56v-1.754a2.568 2.568 0 00-2.577-2.56z"/><g><path d="M257.913 131.088h-1.755a2.568 2.568 0 00-2.559 2.577 2.568 2.568 0 002.559 2.577h1.755a2.568 2.568 0 002.558-2.577 2.568 2.568 0 00-2.558-2.577zM245.314 131.088h-1.755a2.568 2.568 0 00-2.559 2.577 2.568 2.568 0 002.559 2.577h1.755a2.568 2.568 0 002.558-2.577 2.568 2.568 0 00-2.558-2.577zM251.022 136.815a2.568 2.568 0 00-2.577 2.559v1.754a2.568 2.568 0 002.577 2.56 2.568 2.568 0 002.577-2.56v-1.754a2.568 2.568 0 00-2.577-2.559zM251.022 124.216a2.568 2.568 0 00-2.577 2.559v1.754a2.568 2.568 0 002.577 2.56 2.568 2.568 0 002.577-2.56v-1.754a2.568 2.568 0 00-2.577-2.56z"/></g></g><g><g fill="#990e94" fill-rule="nonzero"><path d="M460.658 245.431l-13.636-13.638a2.54 2.54 0 00-1.795-.744h-.004l-7.316.01h-.048c-4.039 0-8.085-.742-11.871-2.159l4.39-2.944a7.927 7.927 0 003.403-5.167 7.928 7.928 0 00-1.309-6.047 7.997 7.997 0 00-6.682-3.4l10.113-10.113c3.068-3.068 3.068-8.06 0-11.128a7.856 7.856 0 00-2.564-1.715 7.82 7.82 0 001.077-3.98 7.82 7.82 0 00-2.304-5.564 7.818 7.818 0 00-5.565-2.305 7.821 7.821 0 00-3.98 1.078 7.86 7.86 0 00-1.714-2.564 7.818 7.818 0 00-5.564-2.305 7.818 7.818 0 00-5.565 2.305l-3.631 3.631a7.875 7.875 0 00-1.605-2.316 7.818 7.818 0 00-5.565-2.304 7.819 7.819 0 00-5.565 2.304l-1.61 1.61-6.542-6.507a4.88 4.88 0 010-6.894 4.882 4.882 0 016.52-.338l6.336 6.338a2.531 2.531 0 001.796.743 2.54 2.54 0 001.795-4.334l-10.932-10.932a4.88 4.88 0 010-6.895 4.88 4.88 0 016.894 0l19.154 19.19a2.531 2.531 0 001.796.745 2.54 2.54 0 001.795-4.334l-14.559-14.597a4.882 4.882 0 01.338-6.52 4.88 4.88 0 016.895 0l5.334 5.335a2.539 2.539 0 103.59-3.59l-5.334-5.335c-3.88-3.88-10.195-3.88-14.076 0a9.89 9.89 0 00-2.573 4.47 9.877 9.877 0 00-5.807-1.87 9.889 9.889 0 00-7.038 2.915c-3.493 3.494-3.84 8.958-1.044 12.845a9.888 9.888 0 00-4.471 2.574c-3.663 3.662-3.867 9.491-.616 13.397a9.887 9.887 0 00-4.373 2.547c-3.88 3.881-3.88 10.195 0 14.076l1.133 1.134c-4.284 5.144-6.613 11.563-6.603 18.342l.006 4.205-10.418 10.42a2.54 2.54 0 003.59 3.59l11.164-11.163a2.54 2.54 0 00.743-1.8l-.007-5.26a23.422 23.422 0 016.906-16.706l12.6-12.6 1.21-1.21a2.772 2.772 0 011.973-.817c.746 0 1.446.29 1.973.818.528.527.818 1.228.818 1.974 0 .64-.215 1.246-.61 1.739l-3.356 3.356a2.54 2.54 0 000 3.591l.007.007.006.006a2.532 2.532 0 001.795.744c.65 0 1.3-.248 1.796-.744l11.962-11.989a2.772 2.772 0 011.974-.817c.746 0 1.446.29 1.973.817a2.794 2.794 0 01.209 3.712l-12.185 12.211a2.54 2.54 0 003.591 3.591l15.696-15.722a2.772 2.772 0 011.974-.818c.746 0 1.447.29 1.974.818a2.794 2.794 0 010 3.947l-15.723 15.696a2.54 2.54 0 003.59 3.59l12.212-12.184a2.793 2.793 0 013.712.209 2.794 2.794 0 010 3.947l-17.143 17.143a3.287 3.287 0 00-.265 4.402 3.287 3.287 0 004.34.792l5.178-3.14a2.915 2.915 0 013.89.819c.453.646.622 1.428.477 2.203a2.887 2.887 0 01-1.239 1.881l-11.982 8.035a23.497 23.497 0 01-13.132 3.995h-.033l-8.138-.012h-.004a2.54 2.54 0 00-1.795.744L381.3 245.665a2.54 2.54 0 003.591 3.59l10.418-10.418 7.084.01h.04a28.56 28.56 0 0015.961-4.856l2.566-1.72a39.08 39.08 0 0016.897 3.868h.055l6.262-.01 12.893 12.893a2.532 2.532 0 001.795.744 2.54 2.54 0 001.795-4.335zm-74.162-62.201l-5.232 5.232-1.047-1.047a4.88 4.88 0 010-6.894 4.882 4.882 0 016.52-.338l1.403 1.403-1.644 1.644zM489.256 216.835a2.547 2.547 0 00-1.795-.744c-.668 0-1.323.27-1.795.744a2.554 2.554 0 00-.744 1.795c0 .668.272 1.323.744 1.795a2.559 2.559 0 001.795.744c.668 0 1.323-.271 1.795-.744a2.562 2.562 0 00.744-1.795c0-.67-.272-1.322-.744-1.795zM482.429 210.007l-6.065-6.065.014-10.266a38.735 38.735 0 00-6.586-21.703l-11.176-16.666a10.04 10.04 0 00-6.545-4.31 10.039 10.039 0 00-7.66 1.657c-3.678 2.576-5.14 7.224-3.84 11.343l-6.636-6.636a2.54 2.54 0 00-3.59 3.591l14.255 14.256a3.59 3.59 0 004.809.29 3.59 3.59 0 00.864-4.74l-4.367-7.205a5.05 5.05 0 011.418-6.739 5.002 5.002 0 013.815-.825 5 5 0 013.26 2.146l11.175 16.666a33.674 33.674 0 015.726 18.868l-.016 11.32a2.54 2.54 0 00.744 1.799l6.81 6.81a2.532 2.532 0 001.795.743 2.54 2.54 0 001.795-4.335z"/><path d="M425.913 248.088h-1.755a2.568 2.568 0 00-2.559 2.577 2.568 2.568 0 002.559 2.577h1.755a2.568 2.568 0 002.558-2.577 2.568 2.568 0 00-2.558-2.577zM413.314 248.088h-1.755a2.568 2.568 0 00-2.559 2.577 2.568 2.568 0 002.559 2.577h1.755a2.568 2.568 0 002.558-2.577 2.568 2.568 0 00-2.558-2.577zM419.022 253.815a2.568 2.568 0 00-2.577 2.559v1.754a2.568 2.568 0 002.577 2.56 2.568 2.568 0 002.577-2.56v-1.754a2.568 2.568 0 00-2.577-2.559zM419.022 241.216a2.568 2.568 0 00-2.577 2.559v1.754a2.568 2.568 0 002.577 2.56 2.568 2.568 0 002.577-2.56v-1.754a2.568 2.568 0 00-2.577-2.56zM427.966 151.393a2.548 2.548 0 00-1.793-.743c-.67 0-1.323.271-1.798.743a2.558 2.558 0 00-.744 1.796c0 .67.272 1.322.744 1.795a2.564 2.564 0 001.798.744c.668 0 1.32-.272 1.793-.744a2.55 2.55 0 00.746-1.795 2.55 2.55 0 00-.746-1.796zM365.966 166.393a2.548 2.548 0 00-1.793-.743c-.67 0-1.323.271-1.798.743a2.558 2.558 0 00-.744 1.796c0 .67.272 1.322.744 1.795a2.564 2.564 0 001.798.744c.668 0 1.32-.272 1.793-.744a2.55 2.55 0 00.746-1.795 2.55 2.55 0 00-.746-1.796zM488.966 166.393a2.548 2.548 0 00-1.793-.743c-.67 0-1.323.271-1.798.743a2.558 2.558 0 00-.744 1.796c0 .67.272 1.322.744 1.795a2.564 2.564 0 001.798.744c.668 0 1.32-.272 1.793-.744a2.55 2.55 0 00.746-1.795 2.55 2.55 0 00-.746-1.796zM451.53 190.795a2.54 2.54 0 00-3.592-3.59l-1.107 1.107c-4.742 4.741-4.742 12.457 0 17.198a2.532 2.532 0 001.795.744 2.54 2.54 0 001.795-4.335 7.091 7.091 0 010-10.017l1.108-1.107zM481.19 133.711a8.72 8.72 0 00-4.557 1.296 8.72 8.72 0 00-4.556-1.296c-4.858 0-8.81 4.025-8.81 8.972 0 2.804 2.015 6.17 6.162 10.294a64.681 64.681 0 005.662 4.978 2.534 2.534 0 003.084 0 64.73 64.73 0 005.662-4.978c4.147-4.123 6.163-7.49 6.163-10.294 0-4.947-3.953-8.972-8.81-8.972zm-4.558 18.979c-4.243-3.524-8.288-8.021-8.288-10.007 0-2.147 1.675-3.893 3.733-3.893a3.63 3.63 0 012.69 1.195 2.54 2.54 0 003.732 0 3.63 3.63 0 012.69-1.195c2.058 0 3.733 1.746 3.733 3.893 0 1.98-4.046 6.479-8.29 10.007zM377.923 120a8.72 8.72 0 00-4.556 1.296 8.72 8.72 0 00-4.556-1.295c-4.858 0-8.811 4.024-8.811 8.971 0 2.804 2.016 6.171 6.163 10.294a64.75 64.75 0 005.662 4.978 2.534 2.534 0 003.084 0 64.73 64.73 0 005.662-4.977c4.147-4.124 6.163-7.49 6.163-10.294 0-4.948-3.953-8.972-8.811-8.972zm-4.557 18.979c-4.243-3.524-8.288-8.02-8.288-10.007 0-2.147 1.675-3.893 3.733-3.893 1.024 0 1.979.424 2.69 1.195a2.54 2.54 0 003.732 0 3.63 3.63 0 012.69-1.195c2.058 0 3.733 1.746 3.733 3.893 0 1.98-4.046 6.479-8.29 10.007z"/></g></g><g><g fill="#990e94" fill-rule="nonzero"><path d="M654.747 187.465c-1.167-11.74-6.412-22.808-14.769-31.166a50.985 50.985 0 00-25.081-13.771v-6.452c3.757-.934 6.549-4.335 6.549-8.377 0-4.76-3.873-8.632-8.633-8.632h-18.281c-4.76 0-8.633 3.872-8.633 8.632 0 4.042 2.793 7.443 6.55 8.377v6.47a50.982 50.982 0 00-25.005 13.754 51.534 51.534 0 00-4.31 4.892c-.065-.005-.128-.01-.193-.01h-18.094a2.54 2.54 0 000 5.079h14.831a50.9 50.9 0 00-4.505 9.759h-27.634a2.54 2.54 0 000 5.078h26.2a51.625 51.625 0 00-1.261 9.76H541.25a2.54 2.54 0 000 5.077h11.309a51.55 51.55 0 001.585 9.76h-16.449a2.54 2.54 0 000 5.078h18.07a50.992 50.992 0 0011.68 18.06c8.364 8.366 19.444 13.612 31.196 14.773a51.22 51.22 0 005.032.248c9.908 0 19.69-2.868 27.99-8.273a2.54 2.54 0 00-2.77-4.255c-18.17 11.831-42.502 9.273-57.858-6.083-18.018-18.018-18.018-47.334 0-65.352 18.017-18.018 47.334-18.018 65.352 0 15.336 15.336 17.908 39.647 6.116 57.807a2.54 2.54 0 004.259 2.766c6.3-9.703 9.136-21.422 7.985-33zm-63.77-59.765a3.559 3.559 0 013.555-3.555h18.281a3.559 3.559 0 013.555 3.555 3.559 3.559 0 01-3.555 3.554h-18.281a3.559 3.559 0 01-3.555-3.554zm6.55 13.973v-5.34h12.292v5.33a51.735 51.735 0 00-12.293.01zM655.913 144.088h-1.755a2.568 2.568 0 00-2.559 2.577 2.568 2.568 0 002.559 2.577h1.755a2.568 2.568 0 002.558-2.577 2.568 2.568 0 00-2.558-2.577zM643.314 144.088h-1.755a2.568 2.568 0 00-2.559 2.577 2.568 2.568 0 002.559 2.577h1.755a2.568 2.568 0 002.558-2.577 2.568 2.568 0 00-2.558-2.577zM649.022 149.815a2.568 2.568 0 00-2.577 2.559v1.754a2.568 2.568 0 002.577 2.56 2.568 2.568 0 002.577-2.56v-1.754a2.568 2.568 0 00-2.577-2.559zM649.022 137.216a2.568 2.568 0 00-2.577 2.559v1.754a2.568 2.568 0 002.577 2.56 2.568 2.568 0 002.577-2.56v-1.754a2.568 2.568 0 00-2.577-2.56z"/><path d="M638.184 224.498c-.67 0-1.323.272-1.795.744a2.548 2.548 0 00-.744 1.795 2.542 2.542 0 002.54 2.54c.667 0 1.32-.27 1.794-.745a2.558 2.558 0 00.744-1.795c0-.668-.272-1.323-.744-1.795a2.563 2.563 0 00-1.795-.744zM560.184 235.498c-.67 0-1.323.272-1.795.744a2.548 2.548 0 00-.744 1.795 2.542 2.542 0 002.54 2.54c.667 0 1.32-.27 1.794-.745a2.558 2.558 0 00.744-1.795c0-.668-.272-1.323-.744-1.795a2.563 2.563 0 00-1.795-.744zM578.184 133.498c-.67 0-1.323.272-1.795.744a2.548 2.548 0 00-.744 1.795 2.542 2.542 0 002.54 2.54c.667 0 1.32-.27 1.794-.745a2.558 2.558 0 00.744-1.795c0-.668-.272-1.323-.744-1.795a2.563 2.563 0 00-1.795-.744zM603.711 153.178c-21.718 0-39.388 17.67-39.388 39.388 0 21.72 17.67 39.389 39.388 39.389 21.719 0 39.388-17.67 39.388-39.389s-17.67-39.388-39.388-39.388zm0 73.698c-18.919 0-34.31-15.391-34.31-34.31 0-18.918 15.391-34.31 34.31-34.31 18.919 0 34.31 15.392 34.31 34.31 0 18.919-15.391 34.31-34.31 34.31z"/><path d="M619.772 172.914l-12.576 12.576a7.842 7.842 0 00-3.485-.814c-1.25 0-2.433.294-3.485.814l-5.628-5.628a2.54 2.54 0 00-3.591 3.59l5.628 5.629a7.838 7.838 0 00-.814 3.485c0 4.35 3.54 7.89 7.89 7.89s7.89-3.54 7.89-7.89c0-1.25-.294-2.433-.814-3.485l12.207-12.207.369-.369a2.54 2.54 0 00-3.59-3.59zm-16.06 22.464a2.815 2.815 0 01-2.813-2.812 2.815 2.815 0 012.812-2.811 2.815 2.815 0 012.812 2.811 2.815 2.815 0 01-2.812 2.812zM630.859 190.058h-2.353a2.54 2.54 0 000 5.078h2.353a2.54 2.54 0 000-5.078zM578.916 189.996h-2.352a2.54 2.54 0 000 5.078h2.352a2.54 2.54 0 000-5.078zM603.742 170.31a2.54 2.54 0 002.54-2.539v-2.352a2.54 2.54 0 00-5.079 0v2.352a2.54 2.54 0 002.54 2.54zM603.68 214.822a2.54 2.54 0 00-2.539 2.54v2.352a2.54 2.54 0 005.078 0v-2.352a2.54 2.54 0 00-2.539-2.54zM527.54 205.694c-.669 0-1.324.271-1.796.744a2.558 2.558 0 00-.744 1.795c0 .67.271 1.323.744 1.795a2.559 2.559 0 001.795.744c.668 0 1.323-.272 1.795-.744a2.559 2.559 0 00.744-1.795c0-.668-.272-1.323-.744-1.795a2.557 2.557 0 00-1.795-.744z"/></g></g><path d="M66.438 295.16a.22.22 0 010-.32l3.425-3.424a.493.493 0 00.137-.32.493.493 0 00-.137-.32l-.64-.639a.493.493 0 00-.319-.137.415.415 0 00-.32.137l-3.424 3.425a.22.22 0 01-.32 0l-3.424-3.425a.493.493 0 00-.32-.137.493.493 0 00-.32.137l-.639.64a.493.493 0 00-.137.319c0 .091.046.228.137.32l3.425 3.424a.22.22 0 010 .32l-3.425 3.424a.493.493 0 00-.137.32c0 .091.046.228.137.32l.64.639a.493.493 0 00.319.137.493.493 0 00.32-.137l3.424-3.425a.22.22 0 01.32 0l3.424 3.425a.493.493 0 00.32.137.493.493 0 00.32-.137l.639-.64a.493.493 0 00.137-.319.493.493 0 00-.137-.32l-3.425-3.424z" fill="#B7B8B9" fill-rule="nonzero"/></g></svg>