<svg width="1000" height="1000" xmlns="http://www.w3.org/2000/svg" xmlns:xlink="http://www.w3.org/1999/xlink"><defs><path d="M0 814l19.587 15.313a2 2 0 01-.237 3.31L1 843.146" id="a"/><path d="M30.333 70C49.663 70 70 54.33 70 35S49.663 0 30.333 0C11.003 0 0 24 0 35s11.003 35 30.333 35z" id="b"/><path d="M138.795 19.057c-.06-4.21-.224-10.318-2.502-13.976-2.158-3.466-7.367-2.743-10.784-2.7-6.244.075-12.55-2.072-18.783-1.15-5.085.751-6.646 4.006-7.234 8.833-.571 4.683-.442 10.554.674 15.153.846 3.484 4.793 3.493 7.767 3.666-.606 3.632-.381 7.47-.387 11.134-.001.779 1.044 1.288 1.596.662 3.633-4.12 8.098-7.399 11.46-11.766 4.605.15 9.326 1.201 13.875.073 4.174-1.035 4.366-6.514 4.318-9.93zm-3.207-11.56c-1.522-1.213-3.22-2.303-4.873-3.334 1.448.162 2.791.589 3.787 1.596.446.45.801 1.046 1.086 1.738zm-6.446-3.42c2.34 1.729 4.55 3.85 7.03 5.356.03.136.06.271.088.41-1.422-1.182-3.645-1.906-5.205-2.714-1.669-.864-3.8-1.715-5.352-2.93 1.083-.04 2.267-.13 3.439-.123zm-4.48.14l.286-.002c1.199 1.398 2.99 2.271 4.568 3.179 2.038 1.171 4.484 3.11 6.77 3.676a.491.491 0 00.178.01c.065.476.121.956.164 1.439-.007.001-.014.006-.021.008a.407.407 0 00-.142-.13c-.533-.342-1.064-.688-1.594-1.035a26.337 26.337 0 00-3.183-1.797c-4.174-1.987-8.418-3.822-12.597-5.799 1.851.236 3.704.432 5.571.451zm-6.033-.511c-.096.089-.118.251.032.338 4.561 2.639 9.472 4.635 14.02 7.282.742.433 2.805 2.53 4.038 2.414.028.459.05.912.069 1.35-2.24-2.479-6.727-4.17-9.051-5.33-4.528-2.26-9.522-3.967-13.846-6.648 1.582.163 3.159.388 4.738.594zm-17.01 19.418a116.377 116.377 0 015.982 4.222c-2.976-.678-5.419-.53-5.983-4.222zm7.81 14.51c.005-.778.018-1.556.028-2.333.337.325.712.61 1.089.887.067.05.128.106.193.156-.442.425-.88.854-1.31 1.29zm1.64-1.603a1.534 1.534 0 01-.112-.063c-.51-.323-1.032-.658-1.493-1.05 0-.001-.002 0-.003-.002.01-.752.016-1.504.026-2.256.926.744 1.866 1.468 2.749 2.269-.391.365-.78.733-1.168 1.102zm1.742-1.638c-.968-.981-2.159-1.747-3.314-2.519.013-.994.018-1.989.034-2.984 0-.03-.008-.054-.011-.082a287.424 287.424 0 015.008 3.975c-.569.54-1.143 1.075-1.717 1.61zm2.496-2.365c-4.386-3.54-8.85-6.914-13.779-9.64a66.396 66.396 0 01-.307-3.863c5.833 3.217 10.363 7.952 15.66 11.898a54.408 54.408 0 01-1.574 1.605zm3.833-4.242a30.25 30.25 0 01-1.527 1.839c-4.71-4.429-10.309-9.282-16.415-11.587-.039-.842-.059-1.684-.07-2.526 6.52 3.334 11.908 8.483 18.224 12.072a.995.995 0 00-.212.202zm1.725-.733c-6.307-4.35-12.72-9.193-19.743-12.22-.002-.992.024-1.977.066-2.955 8.104 4.736 15.58 10.43 23.498 15.455-1.273-.113-2.547-.228-3.821-.28zm6.437.49c-8.661-5.474-16.963-11.555-26.087-16.26.007-.133.01-.269.017-.402.046-.727.129-1.455.26-2.171 4.988 2.545 9.8 5.33 14.533 8.336 5.09 3.232 9.669 7.092 14.558 10.564a33.565 33.565 0 01-3.281-.067zm4.973-.055c-4.134-4.289-9.666-7.633-14.652-10.808-5.076-3.234-10.448-6.188-16.02-8.5.21-.942.525-1.855.97-2.714.019.035.04.071.077.105 4.617 4.36 10.31 7.49 15.753 10.684 2.938 1.725 5.914 3.385 8.854 5.108 2.626 1.538 5.074 3.505 7.761 4.912.11.058.216.068.309.046-.788.718-1.861 1.022-3.052 1.167zm3.359-1.503a.446.446 0 00-.097-.382c-3.495-4.216-10.01-6.74-14.698-9.33-6.134-3.387-12.232-6.77-17.7-11.192a.353.353 0 00-.324-.068c.005-.007.008-.016.013-.024.247-.413.57-.744.947-1.01 11.442 6.039 21.612 13.915 32.548 20.762a3.884 3.884 0 01-.69 1.244zm1.007-2.542c-10.387-7.096-20.879-14.544-32.362-19.765 1.259-.648 2.916-.764 4.357-.786 3.778 3.65 8.359 6.401 12.867 9.042 5.26 3.081 10.24 6.469 15.373 9.707-.051.604-.12 1.205-.235 1.802zm-12.658-11.436c-4.98-2.784-9.84-5.614-14.321-9.12h.27a33.48 33.48 0 012.54.105c3.712 2.778 8.265 4.59 12.398 6.633 3.766 1.86 9.394 3.897 11.992 7.51.014.38.029.74.048 1.058.038.648.047 1.297.039 1.945-3.633-3.428-8.709-5.75-12.966-8.13z" id="v"/><path d="M30.333 70C49.663 70 70 54.33 70 35S49.663 0 30.333 0C11.003 0 0 24 0 35s11.003 35 30.333 35z" id="c"/><path d="M30.333 70C49.663 70 70 54.33 70 35S49.663 0 30.333 0C11.003 0 0 24 0 35s11.003 35 30.333 35z" id="d"/><path d="M89.24 8.228c-2.945-9.173-17.901-9.474-20.518-.729C65.201.39 55.17.253 51.35 7.934c-5.268 10.592 5.977 23.67 15.046 27.702a.436.436 0 00.153.037c.088.153.22.28.4.328 1.563.428 4.045-1.796 5.222-2.523 1.265-.781 2.601-1.537 3.91-2.33.069.038.136.082.205.117.397.198.783-.237.56-.588.956-.6 1.887-1.227 2.75-1.91 6.074-4.804 12.315-12.222 9.645-20.54zm-2.117-.409c-.397-.295-.775-.558-1.057-.776-1.815-1.398-3.701-2.703-5.61-3.97 2.77.475 5.317 2.062 6.667 4.746zM79.26 2.945a.305.305 0 00.112.145c3.101 2.116 5.95 4.343 8.535 7.009.05.24.1.48.133.733.018.138.028.275.04.412-1.778-1.357-3.7-2.546-5.447-3.957a47.04 47.04 0 01-4.71-4.343c.445-.03.892-.024 1.337 0zM66.555 34.839c-3.29-1.934-6.65-4.869-9.327-8.308.373.353.738.692 1.08 1.015 2.568 2.427 5.505 5.17 8.54 7.097a.568.568 0 00-.293.196zm1.228-.513c-2.059-2.441-5.13-4.288-7.555-6.342-2.443-2.07-4.667-4.225-6.388-6.89a22.08 22.08 0 01-1.358-3.654c2.16 3.069 4.891 5.877 7.488 8.552 2.667 2.745 5.991 5.882 9.72 7.118-.627.459-1.3.924-1.907 1.216zm4.303-2.863c-3.936-1.873-7.27-5.473-10.354-8.428a118.835 118.835 0 01-5.607-5.747c-1.063-1.167-1.997-2.832-3.21-3.819-.09-.074-.204-.024-.218.09-.131 1.13 1.522 2.631 2.17 3.42 1.934 2.35 4.08 4.541 6.224 6.697 2.2 2.213 4.49 4.347 6.917 6.31.807.653 1.904 1.673 3.04 2.142-.18.122-.372.258-.582.412-.026-.026-.051-.053-.088-.073-3.653-1.951-6.761-4.252-9.765-7.117-2.864-2.73-5.266-5.989-8.221-8.604a.158.158 0 00-.093-.035 16.278 16.278 0 01-.436-3.818c.01-.86.136-1.703.36-2.512 7.17 6.6 13.562 14.003 20.876 20.443-.338.212-.674.427-1.013.64zm1.992-1.257c-7.432-6.515-13.904-14.12-21.757-20.147a9.804 9.804 0 01.772-1.797c3.562 5.138 8.324 9.27 12.872 13.512 2.03 1.893 3.972 3.877 5.99 5.782.789.745 1.608 1.642 2.492 2.417l-.37.233zm1.45-.915c-7.213-7.307-15.882-13.317-22.176-21.472.281-.452.605-.875.956-1.272 6.286 8.23 15.064 14.159 21.534 22.258a.478.478 0 00.211.154l-.526.332zm1.982-1.252c-.27.172-.543.343-.815.515a.555.555 0 00-.091-.511c-6.34-8.201-15.2-13.973-21.968-21.8-.008-.008-.017-.011-.026-.018a9.136 9.136 0 011.158-.999c7.224 7.475 14.404 15.116 22.01 22.193a.488.488 0 00.496.114c-.255.174-.51.345-.764.506zm1.052-.703c.146-.186.182-.448-.041-.66-7.505-7.102-14.317-15.185-22.318-21.75a8.642 8.642 0 011.834-.888c2.812 4.829 7.442 8.58 11.598 12.199 2.056 1.79 4.169 3.517 5.967 5.569.96 1.095 2.574 3.397 4.093 3.698.322.063.65-.269.449-.584-.784-1.234-2.238-2.236-3.252-3.292-1.846-1.922-3.76-3.666-5.806-5.384-4.548-3.82-9.13-7.473-12.586-12.352.172-.049.343-.1.52-.138 4.075-.88 7.068 2.046 8.591 5.427-.804-.778-1.607-1.558-2.428-2.32-1.247-1.16-2.625-2.73-4.34-3.066-.147-.029-.238.164-.103.246 1.777 1.087 3.395 2.984 4.882 4.428 2.39 2.321 4.692 4.734 7.002 7.134 1.754 1.823 3.505 3.646 5.245 5.481.756.797 2.83 3.718 4.235 3.302l.007-.004a28.666 28.666 0 01-3.549 2.954zm3.798-3.192a.417.417 0 00-.256-.491c-1.766-.71-3.616-3.508-4.898-4.86-1.757-1.854-3.58-3.646-5.38-5.457a386.57 386.57 0 00-2.682-2.667c.307-.138.524-.457.413-.9-.028-.109-.063-.212-.093-.32.052-.178.116-.346.176-.517.66 2.113 3.662 4.173 5.043 5.39 3.02 2.662 6.24 5.088 9.198 7.82.06.057.125.088.19.108-.54.66-1.112 1.294-1.71 1.894zm2.232-2.557c-.02-.032-.033-.064-.062-.094-2.464-2.53-5.45-4.607-8.187-6.826-2.135-1.73-5.146-3.783-6.468-6.335a8.748 8.748 0 01.936-1.634c.207.58.75 1.464.868 1.61 1.082 1.33 2.337 2.455 3.65 3.553 3.263 2.727 6.337 5.702 9.66 8.347.18.143.388.127.546.034-.297.458-.61.907-.943 1.345zm1.175-1.712a.404.404 0 00-.143-.302c-3.344-3.092-6.834-5.88-10.392-8.706-1.528-1.213-3.13-2.55-4.041-4.306-.022-.043-.052-.126-.09-.22.051.027.098.063.151.088.035.02.065-.032.031-.054-.061-.041-.11-.067-.16-.095.277-.34.58-.653.899-.942 1.897 2.815 4.362 5.3 6.752 7.666 1.863 1.846 4.759 5.389 7.442 6.088-.145.263-.29.526-.449.783zm.792-1.434c-.81-.96-2.119-1.646-3.085-2.425-1.417-1.143-2.773-2.365-4.112-3.599-2.493-2.298-4.841-4.753-6.925-7.426.283-.226.582-.43.888-.62 2.362 2.224 4.66 4.51 6.997 6.76 2.042 1.962 4.37 4.346 6.997 5.506.005.003.011.002.017.004-.22.61-.48 1.211-.777 1.8zm1.02-2.55c-2.216-1.798-4.558-3.407-6.706-5.311-2.396-2.124-4.674-4.382-7.107-6.463a9.7 9.7 0 011.403-.62c1.924 2.221 4.021 4.277 6.215 6.235 1.798 1.605 4.14 4.04 6.51 4.906-.085.421-.19.84-.315 1.253zm.47-2.251c-1.912-1.59-4.19-2.872-6.114-4.459-2.209-1.822-4.351-3.758-6.344-5.822.54-.164 1.096-.273 1.656-.348 1.473 1.743 3.097 3.332 4.816 4.846 1.807 1.592 3.87 3.474 6.064 4.555-.006.412-.03.821-.078 1.228z" id="t"/><path d="M30.333 70C49.663 70 70 54.33 70 35S49.663 0 30.333 0C11.003 0 0 24 0 35s11.003 35 30.333 35z" id="e"/><path d="M36.493 28.927c-.144-1.567-.214-3.6-1.066-4.974.084-.037.164-.078.235-.126.332-.228.523-.804.141-1.101-.665-.518-1.58-.454-2.387-.55-1.892-.227-3.784-.445-5.684-.59-.499-.038-1.155-.11-1.865-.156-.022-.03-.046-.057-.068-.086-.128-.17-.377-.094-.422.058-.88-.037-1.81-.015-2.62.176a.233.233 0 00-.277.068c-.745.221-1.362.608-1.7 1.257-1.28 2.46-.563 6.393-.32 9.006.047.503.264 5.257 1.623 4.219a.619.619 0 00.581.394c4.506.173 9.002-.08 13.468-.684.383-.051.653-.5.65-.855a70.405 70.405 0 00-.289-6.056zm-2.459-4.767c-.013.61.063 1.234.168 1.859l-.109-.112c-.658-.701-1.327-1.375-2.061-1.988.675.123 1.373.227 2.002.24zm-2.804-.394c-.02.08-.007.167.067.232.76.661 1.46 1.382 2.13 2.134.373.419.7.923 1.056 1.389.074.389.143.775.192 1.157-.63-.564-1.214-1.18-1.8-1.788-1.08-1.12-2.105-2.297-3.2-3.403.408.047.954.16 1.555.279zm-2.195-.356c1.402 1.496 2.632 3.145 3.967 4.7.372.433 1.053 1.395 1.791 1.918.04.483.087.966.113 1.45-2.41-2.849-5.16-5.415-7.595-8.267.676.068 1.283.145 1.724.2zm-3.836 11.664c-.267-.118-.502-.388-.697-.581-.618-.614-1.176-1.296-1.74-1.961-.05-.06-.13-.05-.184-.008a.657.657 0 01-.198-.481c0-.014-.022-.014-.022 0 .001.24.068.352.206.5-.041.043-.064.103-.022.158a42.769 42.769 0 001.94 2.41c-.606.033-1.212.068-1.818.098a.704.704 0 00-.214.05c.13-1.214-.348-3.215-.396-3.906-.04-.594-.09-1.206-.128-1.827.926 1.37 2.16 2.576 3.302 3.72.354.355 1.024 1.149 1.74 1.716-.59.039-1.179.078-1.769.112zm3.236-.215c-2.489-1.67-5.041-3.99-6.57-6.578-.02-.568-.015-1.137.007-1.702 1.348 1.388 2.628 2.847 3.907 4.297 1.077 1.221 2.134 2.778 3.399 3.92-.248.019-.495.044-.743.063zm1.87-.16c-1.002-1.435-2.437-2.679-3.612-3.946-1.546-1.667-3.11-3.322-4.784-4.861.057-.692.158-1.372.333-2.024 1.658 2.02 3.432 3.96 5.16 5.91a220.596 220.596 0 003.17 3.517c.362.39.835 1.034 1.412 1.13.293.048.615-.324.327-.561-1.69-1.388-3.202-3.39-4.716-4.988-1.694-1.787-3.362-3.6-5.047-5.395.204-.14.506-.234.862-.298 1.725 2.376 3.7 4.6 5.641 6.783.949 1.067 2.554 3.319 4.213 4.443-.986.107-1.972.205-2.96.29zm4.676-.489c-2.171-1.319-3.998-3.504-5.732-5.297-1.805-1.868-3.586-3.793-5.237-5.81.754-.06 1.655-.027 2.52.04 1.142 1.525 2.381 2.978 3.627 4.42 1.399 1.618 2.865 3.622 4.71 4.729.025.015.05.021.074.029.025.629.045 1.258.054 1.888l-.016.001z" id="r"/><path d="M39.36 12.512c.297-.356.184-1.014-.337-1.14-2.874-.694-6.35-.367-9.296-.362-1.112.002-2.645-.099-4.083.038a13.792 13.792 0 002.569-1.6c2.14-1.701 3.156-5.899 1.045-8.05-3.188-3.25-7.572 1.124-9.84 5.12-.972-3.775-3.694-7.744-7.355-6.16-2.561 1.106-2.797 4.834-1.862 6.983.77 1.774 2.689 3.123 4.716 3.774-4.652-.502-9.335-.579-14.013-.794-.46-.021-.846.4-.845.845.005 2.237-.436 5.11 1.02 7.005.037.05.082.09.131.121-.135.052-.27.1-.406.156-.445.187-.285.806.2.726 2.693-.443 5.374-.436 8.054-.267.043.01.082.011.121.007 2.925.189 5.847.565 8.78.759.35.023.771-.278.83-.633.329-1.945 1.023-4.671.438-6.591-.017-.055-.045-.094-.07-.138.084.029.172.051.272.057.824.045 1.65-.005 2.466-.13a1.984 1.984 0 00-.28.486c-.1.07-.159.19-.106.308-.165.614-.128 1.301-.15 1.947-.044 1.281-.018 2.56.145 3.832.083.645.827.723 1.073.237 2.618-.183 5.215-.421 7.843-.453 2.702-.032 5.187.633 7.829.891a.532.532 0 00.514-.219.48.48 0 00.285-.317c.338-1.2.637-2.388.78-3.628.095-.838.232-2.177-.468-2.81zM1.974 18.02a.486.486 0 00-.019-.219c-.423-1.327-.412-2.791-.335-4.234a9.992 9.992 0 001.13 1.781c.458.59 1.039 1.49 1.692 2.086-.826.132-1.649.32-2.468.586zm3.534-.723c-.413-.725-1.327-1.353-1.876-1.949-.777-.843-1.483-1.771-1.942-2.827-.002-.005-.005-.006-.007-.01.01-.154.02-.307.028-.459l.204.01c.848 1.242 1.912 2.326 2.997 3.361.597.57 1.22 1.196 1.87 1.788-.425.018-.85.044-1.274.086zm2.855-.101c-.827-.7-1.765-1.321-2.563-1.99a27.323 27.323 0 01-3.174-3.11c.791.039 1.583.073 2.375.108.014.035.028.07.056.102 1.087 1.3 2.28 2.49 3.549 3.613.454.402.98.908 1.541 1.356a38.996 38.996 0 00-1.784-.08zm3.756.236c-.94-.902-2.232-1.578-3.224-2.421a35.809 35.809 0 01-2.878-2.762c.747.033 1.495.069 2.242.107.003.093.04.188.132.257 1.276.957 2.424 2.017 3.557 3.137.603.595 1.226 1.27 1.906 1.85-.58-.058-1.16-.115-1.735-.168zm3.656.333c-1.104-1.054-2.425-1.926-3.576-2.94-.967-.852-1.941-1.692-3.002-2.42 1.131.062 2.261.14 3.39.233.506 1.025 1.256 1.917 2.052 2.73.647.66 1.482 1.525 2.372 2.055-.242.278-.612.363-1.236.342zm1.725-2.483c-.03.379-.063.686-.1.963-.615-.454-1.282-.864-1.849-1.349-.766-.655-1.489-1.366-2.073-2.182 1.32.122 2.64.274 3.953.475a.966.966 0 00.234.005c-.123.685-.11 1.408-.165 2.088zm-4.39-7.206c-1.895-1.52-2.141-7.631 1.277-6.077 2.531 1.151 4.086 5.491 3.592 8.047l.007.001c-.01.053-.019.106-.026.157-1.831-.243-3.39-.957-4.85-2.128zm5.383 3.883c-.07-.206-.235-.37-.507-.44.089-.006.18-.01.267-.02a.732.732 0 00.303-.11c-.004.2.05.404.162.575a.723.723 0 00-.225-.005zm19.683.91c-.138.754.13 1.678.096 2.453-.01.227-.028.454-.042.68-.446-.683-1.231-1.27-1.791-1.83-.412-.41-.83-.814-1.264-1.2 1.022.037 2.037.03 3.001-.102zm-18.484-2.312c.003-.012.009-.022.011-.036a5.25 5.25 0 00.057-.37C20.21 7.283 24 1.751 27.306 2.2c1.768.24 1.204 3.669.81 4.54-.528 1.166-1.764 1.911-2.822 2.504-1.643.921-3.714 1.37-5.602 1.312zm3.05 7.336c.07-.83.102-1.66.149-2.492.016-.274.053-.553.092-.833a69.3 69.3 0 011.13 1.272c.423.487.868 1.09 1.372 1.596-.92.136-1.838.285-2.742.457zm4.016-.634c-.595-.718-1.453-1.344-2.077-1.988a44.761 44.761 0 00-1.596-1.587 3.454 3.454 0 00-.048-.955c.293.074.6.126.918.164 1.072.968 2.089 1.995 3.148 2.978.337.313.79.817 1.28 1.218-.543.049-1.085.104-1.625.17zm4.627-.32c-.487.002-.975.019-1.463.043-.198-.28-.5-.454-.787-.657-.574-.407-1.114-.865-1.653-1.316-.819-.685-1.634-1.374-2.461-2.047.541.013 1.099-.006 1.658-.036-.01.102.02.204.119.28 1.103.857 2.169 1.757 3.25 2.64.424.345.875.735 1.349 1.093h-.012zm1.918.01c-.861-.645-1.85-1.167-2.708-1.813-.99-.747-1.937-1.548-2.945-2.27.928-.067 1.832-.138 2.65-.143 1.137.955 2.186 2 3.253 3.033.411.398.833.85 1.276 1.284a20.65 20.65 0 00-1.526-.092zm3.59.485c-.918-.946-2.11-1.754-3.072-2.62a41.553 41.553 0 00-2.505-2.07c.835.036 1.704.106 2.58.163.653.617 1.277 1.259 1.877 1.931.58.652 1.164 1.612 1.943 2.029a.464.464 0 00.456.001l-.085 1.063a6.298 6.298 0 00-1.193-.497z" id="n"/><path d="M18.252 26.024c-.005-1.31-.1-2.617-.354-3.91-.072-.372-.463-.623-.821-.627-4.353-.045-9.143-.957-13.244.918-.438.2-.345.76-.032 1.009-1.056 4.036-.57 8.324-.551 12.452.002.508.404.857.888.888 3.92.253 7.84.014 11.762-.014a.818.818 0 00.574-.22c.38.155.898-.003 1.013-.46.502-2 .428-4.288.596-6.343a45.11 45.11 0 00.167-3.426.334.334 0 00.002-.267zm-1.766-1.64c-.116-.1-.233-.198-.344-.301a21.033 21.033 0 01-.967-.977c.394.024.79.052 1.18.066.06.403.1.807.131 1.212zM5.01 35.021c-.023-1.04-.061-2.076-.1-3.111.653.953 1.466 1.84 2.218 2.647.172.184.345.366.529.534a66.531 66.531 0 01-2.647-.07zm7.044.022a6.631 6.631 0 01-.049-.06c-.579-.737-1.256-1.293-1.962-1.905a26.784 26.784 0 01-4.485-5c-.203-.292-.673-.03-.484.284 1.101 1.838 2.49 3.436 4.008 4.941.599.594 1.197 1.14 1.737 1.758-.533.009-1.065.02-1.597.024a.829.829 0 00-.022-.2c-.068-.272-.39-.317-.581-.189-.113-.086-.227-.171-.336-.261-.496-.408-.947-.873-1.39-1.335-.698-.728-1.462-1.499-2.025-2.355-.072-2.005-.118-4.008-.044-6.02 3.016 3.769 7.809 6.146 10.296 10.277-1.022.01-2.044.023-3.066.041zm4.325-5.326c-.107 1.458-.43 3.064-.446 4.597-.817-1.639-2.772-3.041-3.967-4.084-2.393-2.088-5.126-4.037-7.092-6.572.007-.108.008-.215.016-.323.241-.067.485-.126.73-.178 1.254 1.822 3.204 3.344 4.797 4.815 1.185 1.094 2.644 2.976 4.213 3.534.31.11.547-.269.404-.526-.738-1.332-2.584-2.379-3.71-3.352-1.706-1.471-3.407-2.968-4.953-4.61.57-.09 1.15-.139 1.731-.172-.273.52 2.25 2.724 2.506 2.975.994.981 2.004 1.946 3.034 2.89.554.507 1.445 1.63 2.26 1.654.224.006.462-.253.366-.481-.258-.612-1.065-1.015-1.564-1.423a87.524 87.524 0 01-2.634-2.263c-1.188-1.05-2.623-2.614-3.86-3.19.11.05.186-.088.093-.16l-.017-.01a31.225 31.225 0 013.053.025 23.152 23.152 0 002.465 2.934c.707.721 1.66 1.744 2.683 2.317a97.2 97.2 0 01-.108 1.603zm.157-2.731c-.654-.454-1.317-.9-1.918-1.436a23.44 23.44 0 01-2.536-2.643c.745.046 1.49.101 2.228.151.363.441.748.865 1.136 1.281.346.372.708.775 1.095 1.146.01.5.01 1-.005 1.5z" id="p"/><filter x="-12.5%" y="-14.3%" width="135.1%" height="140.1%" filterUnits="objectBoundingBox" id="s"><feOffset dx="2" dy="2" in="SourceAlpha" result="shadowOffsetOuter1"/><feGaussianBlur stdDeviation="2" in="shadowOffsetOuter1" result="shadowBlurOuter1"/><feColorMatrix values="0 0 0 0 0 0 0 0 0 0 0 0 0 0 0 0 0 0 0.2 0" in="shadowBlurOuter1"/></filter><filter x="-33%" y="-32%" width="192.4%" height="189.5%" filterUnits="objectBoundingBox" id="o"><feOffset dx="2" dy="2" in="SourceAlpha" result="shadowOffsetOuter1"/><feGaussianBlur stdDeviation="2" in="shadowOffsetOuter1" result="shadowBlurOuter1"/><feColorMatrix values="0 0 0 0 0 0 0 0 0 0 0 0 0 0 0 0 0 0 0.2 0" in="shadowBlurOuter1"/></filter><filter x="-12.6%" y="-12.5%" width="135.3%" height="135%" filterUnits="objectBoundingBox" id="u"><feOffset dx="2" dy="2" in="SourceAlpha" result="shadowOffsetOuter1"/><feGaussianBlur stdDeviation="2" in="shadowOffsetOuter1" result="shadowBlurOuter1"/><feColorMatrix values="0 0 0 0 0 0 0 0 0 0 0 0 0 0 0 0 0 0 0.2 0" in="shadowBlurOuter1"/></filter><filter x="-12.5%" y="-25.4%" width="135.1%" height="171.2%" filterUnits="objectBoundingBox" id="m"><feOffset dx="2" dy="2" in="SourceAlpha" result="shadowOffsetOuter1"/><feGaussianBlur stdDeviation="2" in="shadowOffsetOuter1" result="shadowBlurOuter1"/><feColorMatrix values="0 0 0 0 0 0 0 0 0 0 0 0 0 0 0 0 0 0 0.2 0" in="shadowBlurOuter1"/></filter><filter x="-29.9%" y="-32.6%" width="183.6%" height="191.3%" filterUnits="objectBoundingBox" id="q"><feOffset dx="2" dy="2" in="SourceAlpha" result="shadowOffsetOuter1"/><feGaussianBlur stdDeviation="2" in="shadowOffsetOuter1" result="shadowBlurOuter1"/><feColorMatrix values="0 0 0 0 0 0 0 0 0 0 0 0 0 0 0 0 0 0 0.2 0" in="shadowBlurOuter1"/></filter><mask id="f" maskContentUnits="userSpaceOnUse" maskUnits="objectBoundingBox" x="0" y="0" width="21.93" height="29.145" fill="#fff"><use xlink:href="#a"/></mask><mask id="j" maskContentUnits="userSpaceOnUse" maskUnits="objectBoundingBox" x="0" y="0" width="70" height="70" fill="#fff"><use xlink:href="#e"/></mask><mask id="i" maskContentUnits="userSpaceOnUse" maskUnits="objectBoundingBox" x="0" y="0" width="70" height="70" fill="#fff"><use xlink:href="#d"/></mask><mask id="h" maskContentUnits="userSpaceOnUse" maskUnits="objectBoundingBox" x="0" y="0" width="70" height="70" fill="#fff"><use xlink:href="#c"/></mask><mask id="g" maskContentUnits="userSpaceOnUse" maskUnits="objectBoundingBox" x="0" y="0" width="70" height="70" fill="#fff"><use xlink:href="#b"/></mask><linearGradient x1="0%" y1="100%" x2="100%" y2="0%" id="k"><stop stop-color="#E09B3D" offset="0%"/><stop stop-color="#C74C4D" offset="30%"/><stop stop-color="#C21975" offset="60%"/><stop stop-color="#7024C4" offset="100%"/></linearGradient><linearGradient x1="0%" y1="100%" x2="100%" y2="0%" id="l"><stop stop-color="#E09B3D" offset="0%"/><stop stop-color="#C74C4D" offset="30%"/><stop stop-color="#C21975" offset="60%"/><stop stop-color="#7024C4" offset="100%"/></linearGradient></defs><g fill="none" fill-rule="evenodd"><path d="M13.5 398a6 6 0 1112 0c0 4-6 10-6 10s-6-6-6-10zm3.5 0a2.5 2.5 0 105 0 2.5 2.5 0 00-5 0zM67.889 405.556c-.195.498-.957 1.433-1.488 1.832-.481.36-.823.499-1.273.52-.37.018-.523-.014-.996-.206-3.712-1.512-6.676-3.767-9.03-6.867-1.228-1.618-2.164-3.297-2.805-5.039-.371-1.015-.39-1.456-.083-1.976.132-.219.695-.762 1.106-1.064.682-.502.996-.687 1.247-.74.172-.037.47-.008.66.06.093.031.237.105.318.157.503.33 1.9 2.096 2.358 2.979.262.504.35.877.267 1.154-.085.297-.226.454-.851.953-.252.2-.488.407-.524.462a1.204 1.204 0 00-.172.59c.002.436.289 1.226.664 1.835.291.473.81 1.078 1.327 1.543.605.548 1.14.922 1.743 1.217.773.381 1.247.477 1.593.318.088-.039.18-.091.209-.115.026-.023.23-.269.452-.54.428-.533.527-.619.82-.718.373-.126.753-.092 1.137.101a16 16 0 011.335.82c.54.374 1.692 1.303 1.848 1.488.276.335.324.763.138 1.236zM108 398.997c0-.467-.193-.89-.503-1.194l-6.314-5.313a1.674 1.674 0 00-2.366 0l-6.314 5.313c-.31.304-.503.727-.503 1.194v7.67c0 .736.597 1.333 1.333 1.333h13.334c.736 0 1.333-.597 1.333-1.333v-7.67zm-12.6-1.33h9.2c.407 0 .733.326.733.733v1.267a.637.637 0 01-.19.44l-2.053 2.07 3.053 3.05a.648.648 0 11-.916.916L102.083 403H97.91l-3.137 3.143a.648.648 0 11-.916-.916l3.05-3.05-2.05-2.07a.642.642 0 01-.19-.484V398.4c0-.407.326-.733.733-.733z" fill="#990e94" fill-rule="nonzero"/><path d="M20.002 438.305l4.455-4.455 1.697 1.697-4.455 4.455 4.455 4.455-1.697 1.697-4.455-4.455-4.455 4.455-1.697-1.697 4.455-4.455-4.455-4.455 1.697-1.697 4.455 4.455z" fill="#990e94"/><path d="M21 343h18a1 1 0 011 1v1a1 1 0 01-1 1H21a1 1 0 01-1-1v-1a1 1 0 011-1zm0 6h18a1 1 0 011 1v1a1 1 0 01-1 1H21a1 1 0 01-1-1v-1a1 1 0 011-1zm0 6h18a1 1 0 011 1v1a1 1 0 01-1 1H21a1 1 0 01-1-1v-1a1 1 0 011-1z" fill="#FFF"/><g fill="#212223"><path d="M20.584 9h-7.169A4.42 4.42 0 009 13.415v7.17A4.42 4.42 0 0013.415 25h7.17A4.42 4.42 0 0025 20.585v-7.17A4.42 4.42 0 0020.584 9zm2.996 11.585a3 3 0 01-2.995 2.995h-7.17a3 3 0 01-2.995-2.995v-7.17a3 3 0 012.995-2.995h7.17a3 3 0 012.995 2.995v7.17zM17 12.877A4.127 4.127 0 0012.877 17 4.127 4.127 0 0017 21.123 4.127 4.127 0 0021.123 17 4.127 4.127 0 0017 12.877zm0 6.826A2.706 2.706 0 0114.297 17 2.706 2.706 0 0117 14.297 2.706 2.706 0 0119.703 17 2.706 2.706 0 0117 19.703zm4.296-8.03a1.045 1.045 0 00-1.041 1.042c0 .273.111.542.305.736.193.193.462.305.736.305.274 0 .542-.112.736-.305.194-.194.305-.463.305-.736 0-.275-.111-.544-.305-.737a1.046 1.046 0 00-.736-.304z" fill-rule="nonzero"/><path d="M58.915 21.644a1.096 1.096 0 00-.054-.104c-.278-.5-.808-1.114-1.591-1.841l-.017-.017-.008-.008-.008-.008h-.009c-.355-.34-.58-.567-.674-.684-.173-.222-.212-.447-.117-.674.066-.173.316-.536.75-1.092.227-.294.408-.53.54-.708.962-1.277 1.378-2.093 1.25-2.449l-.05-.083c-.032-.05-.119-.096-.257-.137a1.312 1.312 0 00-.534-.021l-2.399.016a.311.311 0 00-.166.005l-.109.025-.041.02-.034.026a.37.37 0 00-.091.087.572.572 0 00-.083.146 13.603 13.603 0 01-.892 1.874c-.205.345-.394.643-.566.896a4.309 4.309 0 01-.433.558c-.117.12-.223.215-.317.287-.095.072-.167.103-.217.092a6.104 6.104 0 01-.141-.034.554.554 0 01-.188-.204.914.914 0 01-.096-.325 3.582 3.582 0 01-.029-.337 7.048 7.048 0 01.005-.4c.005-.172.008-.289.008-.35 0-.21.004-.44.012-.687l.021-.587c.006-.145.008-.297.008-.458 0-.162-.01-.288-.029-.38a1.297 1.297 0 00-.087-.266.449.449 0 00-.17-.2.963.963 0 00-.28-.113 5.543 5.543 0 00-1.125-.108c-1.032-.01-1.696.056-1.99.2a1.122 1.122 0 00-.317.25c-.1.122-.114.189-.042.2.333.05.57.17.708.358l.05.1c.04.072.078.2.117.383.039.184.064.386.075.608.028.406.028.753 0 1.042-.028.289-.054.513-.08.674a1.351 1.351 0 01-.212.575.143.143 0 01-.041.042.624.624 0 01-.225.042c-.078 0-.172-.04-.283-.117a1.998 1.998 0 01-.346-.32 4.287 4.287 0 01-.404-.571A9.958 9.958 0 0147.24 16l-.133-.241a20.781 20.781 0 01-.341-.68 13.09 13.09 0 01-.384-.862.55.55 0 00-.2-.266l-.041-.025a.884.884 0 00-.325-.125l-2.283.016c-.233 0-.391.053-.475.159l-.033.05a.27.27 0 00-.025.133c0 .061.017.136.05.225.333.783.696 1.538 1.087 2.266.392.727.732 1.313 1.02 1.757.29.445.584.864.884 1.258.3.395.498.647.595.758.097.112.174.195.23.25l.208.2c.133.134.329.293.587.48.258.185.544.369.858.55.314.18.679.327 1.095.44.417.115.822.16 1.217.138h.958c.194-.017.341-.078.441-.183l.033-.042a.552.552 0 00.063-.154c.02-.07.029-.146.029-.229a2.745 2.745 0 01.054-.645c.042-.192.089-.336.142-.434a1.065 1.065 0 01.32-.366.544.544 0 01.067-.03c.133-.044.29 0 .471.13.18.13.35.292.508.483.158.192.349.407.57.646.223.239.417.416.584.533l.166.1c.112.067.256.128.434.183.177.056.333.07.466.042l2.133-.033c.21 0 .375-.035.491-.105.117-.07.186-.146.209-.229a.645.645 0 00.004-.283 1.046 1.046 0 00-.059-.22z"/><path d="M81.742 17.489h1.644v6.77c0 .133.108.241.242.241h2.788a.242.242 0 00.242-.242v-6.737h1.89a.242.242 0 00.24-.214l.288-2.492a.242.242 0 00-.24-.27h-2.178v-1.562c0-.471.254-.71.754-.71h1.423a.242.242 0 00.242-.242V9.744a.242.242 0 00-.242-.242h-1.962c-.013 0-.044-.002-.09-.002-.34 0-1.523.067-2.458.927-1.035.952-.891 2.093-.857 2.291v1.827h-1.726a.242.242 0 00-.242.242v2.46c0 .134.108.242.242.242zM125.915 12.906c-.541-.643-1.54-.906-3.45-.906h-6.93c-1.953 0-2.97.28-3.51.965-.525.668-.525 1.652-.525 3.015v2.597c0 2.64.624 3.98 4.035 3.98h6.93c1.656 0 2.573-.232 3.167-.8.608-.583.868-1.534.868-3.18V15.98c0-1.437-.04-2.427-.585-3.074zm-4.785 4.73l-3.147 1.645a.483.483 0 01-.708-.428v-3.28a.484.484 0 01.707-.429l3.147 1.634a.484.484 0 01.001.859z" fill-rule="nonzero"/></g><g fill="#990e94" fill-rule="nonzero"><path d="M110 86.129h-3.987l-5.942 3.127c-.669-.37-1.364-.682-2.114-.87l-7.475-1.87v-.85c3.307-2.308 5.324-6.12 5.324-10.182v-3.102c0-6.892-5.4-12.66-12.038-12.86-.337-.01-.669.003-1.002.02l1.938-4.538-9.395-9.392-5.538 3.605a30.01 30.01 0 00-6.642-2.755L61.762 40H48.24l-1.368 6.464a29.976 29.976 0 00-6.64 2.754l-5.54-3.604L25.307 55l1.905 4.54c-.073-.003-.142-.016-.215-.018-3.398-.099-6.598 1.141-9.029 3.5a12.305 12.305 0 00-3.773 8.912v3.549c0 4.061 2.015 7.872 5.322 10.18v.851l-4.875 1.22-8.838-5.154H0v36.763l17.454 5.817h3.4l.424-1.486 5.35 3.211a5.524 5.524 0 005.327 5.352 5.523 5.523 0 005.323 5.323 5.523 5.523 0 005.323 5.322c.105 2.962 2.53 5.343 5.517 5.343a5.589 5.589 0 003.11-.962l1.572 1.388A5.402 5.402 0 0056.37 150h.328c2.952 0 5.355-2.387 5.392-5.33a5.397 5.397 0 005.322-5.322 5.397 5.397 0 005.323-5.328c2.949-.07 5.33-2.478 5.33-5.444 0-.178-.01-.354-.027-.532L110 112.064V86.13zM92.258 72.382v3.102a8.905 8.905 0 01-4.44 7.677l-.888.513.007 5.614 8.864 2.215-19.51 10.269v-4.78c0-2.384-.964-4.568-2.542-6.182l6.09-1.522V83.67l-.886-.512a8.896 8.896 0 01-4.437-7.674v-3.549c0-2.42.957-4.682 2.695-6.367 1.737-1.684 4.042-2.592 6.45-2.498 4.74.142 8.597 4.32 8.597 9.312zm-34.583 27.995l-8.031-2.567a21.91 21.91 0 00-11.369-.518l-1.017.225v-.524a5.319 5.319 0 014.031-5.165l10.163-2.54V83.67l-.886-.512a8.896 8.896 0 01-4.437-7.674v-3.549c0-2.42.956-4.682 2.695-6.367 1.737-1.684 4.056-2.592 6.45-2.498 4.74.142 8.597 4.32 8.597 9.312v3.102a8.905 8.905 0 01-4.44 7.677l-.888.513.007 5.614 10.161 2.54a5.319 5.319 0 014.03 5.165v6.648l-.437.23h-1.088l-10.907-3.117c-.86-.243-1.745-.343-2.634-.377zm-20.02-33.823C40.989 60.098 47.695 55.968 55 55.968c7.237 0 13.915 4.075 17.272 10.443a12.339 12.339 0 00-1.304 5.524v3.549c0 4.061 2.016 7.872 5.322 10.18v.851l-7.096 1.777-7.099-1.777v-.85c3.307-2.307 5.324-6.12 5.324-10.181v-3.102c0-6.892-5.4-12.66-12.038-12.86a12.326 12.326 0 00-9.028 3.5 12.317 12.317 0 00-3.772 8.913v3.549c0 4.061 2.016 7.872 5.322 10.18v.851l-7.097 1.777-7.098-1.777v-.85c3.307-2.307 5.324-6.12 5.324-10.181v-3.102c0-2.087-.502-4.07-1.376-5.828zm-8.159-10.73l5.668-5.668 4.99 3.247.954-.586a26.475 26.475 0 017.682-3.186l1.092-.262 1.234-5.82h7.77l1.23 5.818 1.092.261a26.501 26.501 0 017.682 3.187l.955.586 4.99-3.247 5.66 5.663-2.012 4.712c-1.37.589-2.64 1.418-3.745 2.49-.073.07-.135.147-.206.22-4.18-6.645-11.57-10.82-19.532-10.82-8.02 0-15.43 4.214-19.6 10.926a12.515 12.515 0 00-3.913-2.775l-1.991-4.746zm-6.431 33.464V83.67l-.886-.512a8.896 8.896 0 01-4.437-7.674v-3.549c0-2.42.956-4.682 2.695-6.367 1.737-1.684 4.047-2.592 6.45-2.498 4.74.142 8.597 4.32 8.597 9.312v3.102a8.905 8.905 0 01-4.44 7.677l-.888.513.007 5.614 6.088 1.522c-1.578 1.614-2.541 3.798-2.541 6.183v1.314l-5.534 1.23.144-.503.067-3.279-9.357-5.458 4.035-1.009zM3.548 86.13h1.294l12.76 7.442-6.439 25.753-7.615-2.539V86.129zm14.482 35.484l-3.493-1.164 6.255-25.016 4.047 2.36v.507l-6.66 23.313h-.15zm12.131 5.108c0-.524.212-1.036.582-1.407l3.12-3.119a1.991 1.991 0 012.814 2.814l-3.12 3.119a1.991 1.991 0 01-3.396-1.407zm5.323 5.322c0-.523.211-1.036.582-1.407l3.119-3.118a1.991 1.991 0 012.814 2.814l-3.12 3.118a1.991 1.991 0 01-3.396-1.407zm5.322 5.323c0-.523.212-1.036.583-1.407l3.118-3.119a1.991 1.991 0 012.814 2.814l-3.119 3.119a1.991 1.991 0 01-3.396-1.407zm7.312 7.311a1.991 1.991 0 01-1.407-3.395l3.119-3.12a1.991 1.991 0 012.814 2.814l-3.12 3.12c-.37.37-.883.581-1.406.581zm8.58 1.775h-.328c-.453 0-.886-.165-1.223-.464l-1.327-1.17 1.332-1.333a5.516 5.516 0 001.118-1.648l1.613 1.343a1.852 1.852 0 01-1.185 3.272zm15.91-15.968h-.306c-.445 0-.88-.158-1.22-.444l-9.622-8.017-2.273 2.727 9.343 7.784a1.85 1.85 0 01-1.187 3.272h-.387a1.85 1.85 0 01-1.183-.43l-9.637-8.029-2.273 2.727 9.343 7.786c.422.349.665.867.665 1.419 0 1.02-.83 1.85-1.85 1.85a2.93 2.93 0 01-1.867-.676l-3.96-3.3a5.519 5.519 0 00-4.764-3.1 5.523 5.523 0 00-5.323-5.323 5.523 5.523 0 00-5.322-5.323c-.104-2.962-2.53-5.342-5.516-5.342-1.458 0-2.885.59-3.916 1.621l-3.118 3.119c-.187.186-.34.398-.498.607l-5.45-3.27 4.778-16.722 11.978-2.663a18.277 18.277 0 019.519.431l2.613.836-8.86 4.43a5.914 5.914 0 00-3.283 5.316v.35a5.95 5.95 0 005.944 5.945 5.925 5.925 0 003.057-.849l6.607-3.961c1.327-.795 3.108-.621 4.254.41l14.99 13.49a1.909 1.909 0 01-1.276 3.328zm33.844-20.613l-29.89 14.946a4.928 4.928 0 00-.305-.296l-14.988-13.49a7.123 7.123 0 00-4.78-1.837 7.146 7.146 0 00-3.676 1.018l-6.61 3.964a2.397 2.397 0 01-3.623-2.055v-.351a2.38 2.38 0 011.324-2.142l9.897-4.948a7.711 7.711 0 015.53-.513l11.149 3.185 2.7.067 33.272-17.511v19.963zM219.235 55.172L204.6 40.536a1.83 1.83 0 00-1.293-.536h-51.227c-1.01 0-1.83.82-1.83 1.83v20.124h3.66V43.66h47.567v12.807c0 1.01.82 1.83 1.83 1.83h12.806v69.521H188.67v3.66h29.272c1.01 0 1.83-.82 1.83-1.83V56.466c0-.486-.193-.95-.537-1.294zm-14.1-.536v-8.39l8.39 8.39h-8.39z"/><path d="M168.545 65.613H111.83c-1.01 0-1.83.82-1.83 1.83v80.499c0 1.01.82 1.83 1.83 1.83h56.715c1.01 0 1.83-.82 1.83-1.83v-80.5a1.83 1.83 0 00-1.83-1.829zm-1.83 80.5H113.66v-76.84h53.056v76.84z"/><path d="M161.227 74.76h-42.08c-1.01 0-1.829.82-1.829 1.83v14.637c0 1.01.82 1.83 1.83 1.83h42.079c1.01 0 1.83-.82 1.83-1.83V76.59a1.83 1.83 0 00-1.83-1.83zm-1.83 14.637h-38.42V78.42h38.42v10.977zM128.295 129.647h-9.147c-1.01 0-1.83.819-1.83 1.83v9.147c0 1.01.82 1.83 1.83 1.83h9.147c1.01 0 1.83-.82 1.83-1.83v-9.148a1.83 1.83 0 00-1.83-1.83zm-1.83 9.147h-5.488v-5.488h5.489v5.488zM144.761 129.647h-9.147c-1.01 0-1.83.819-1.83 1.83v9.147c0 1.01.82 1.83 1.83 1.83h9.147c1.01 0 1.83-.82 1.83-1.83v-9.148a1.83 1.83 0 00-1.83-1.83zm-1.83 9.147h-5.488v-5.488h5.489v5.488zM128.295 113.18h-9.147c-1.01 0-1.83.82-1.83 1.83v9.148c0 1.01.82 1.83 1.83 1.83h9.147c1.01 0 1.83-.82 1.83-1.83v-9.148a1.83 1.83 0 00-1.83-1.83zm-1.83 9.148h-5.488v-5.488h5.489v5.488zM144.761 113.18h-9.147c-1.01 0-1.83.82-1.83 1.83v9.148c0 1.01.82 1.83 1.83 1.83h9.147c1.01 0 1.83-.82 1.83-1.83v-9.148a1.83 1.83 0 00-1.83-1.83zm-1.83 9.148h-5.488v-5.488h5.489v5.488zM128.295 96.715h-9.147c-1.01 0-1.83.82-1.83 1.83v9.147c0 1.01.82 1.83 1.83 1.83h9.147c1.01 0 1.83-.82 1.83-1.83v-9.147a1.83 1.83 0 00-1.83-1.83zm-1.83 9.148h-5.488v-5.489h5.489v5.489zM144.761 96.715h-9.147c-1.01 0-1.83.82-1.83 1.83v9.147c0 1.01.82 1.83 1.83 1.83h9.147c1.01 0 1.83-.82 1.83-1.83v-9.147a1.83 1.83 0 00-1.83-1.83zm-1.83 9.148h-5.488v-5.489h5.489v5.489zM161.227 96.715h-9.148c-1.01 0-1.83.82-1.83 1.83v9.147c0 1.01.82 1.83 1.83 1.83h9.148c1.01 0 1.83-.82 1.83-1.83v-9.147a1.83 1.83 0 00-1.83-1.83zm-1.83 9.148h-5.488v-5.489h5.488v5.489zM161.227 113.18h-9.148c-1.01 0-1.83.82-1.83 1.83v25.614c0 1.01.82 1.83 1.83 1.83h9.148c1.01 0 1.83-.82 1.83-1.83V115.01a1.83 1.83 0 00-1.83-1.83zm-1.83 25.614h-5.488V116.84h5.488v21.954z"/><path d="M152.079 82.079h3.659v3.659h-3.659zM144.761 82.079h3.659v3.659h-3.659zM137.443 82.079h3.659v3.659h-3.659zM163.056 50.977h34.761v3.659h-34.761zM163.056 58.295h34.761v3.659h-34.761zM203.306 65.613v20.125h-3.66V69.272h-3.658v16.466h-3.66V78.42h-3.658v7.318h-3.66V72.931h-3.658v12.807h-3.66V78.42h-3.659v10.978h32.932V65.612zM190.5 102.204h-5.49v-5.489c0-1.01-.819-1.83-1.829-1.83h-7.318c-1.01 0-1.83.82-1.83 1.83v45.738c.001.362.108.715.308 1.016l3.659 5.488a1.83 1.83 0 003.044 0l3.66-5.488c.2-.301.306-.654.307-1.016v-36.59h3.659v18.295h3.659v-20.125a1.83 1.83 0 00-1.83-1.83zm-9.148 39.7l-1.83 2.745-1.83-2.745v-36.041h3.66v36.041zm0-39.7h-3.66v-3.66h3.66v3.66zM188.67 94.886h18.295v3.659H188.67zM195.988 102.204h10.977v3.659h-10.977zM195.988 109.522h10.977v3.659h-10.977zM195.988 116.84h10.977v3.659h-10.977z"/><g><path d="M275 68.164c4.248 0 7.705-3.45 7.705-7.69s-3.457-7.69-7.705-7.69c-4.249 0-7.706 3.45-7.706 7.69s3.457 7.69 7.706 7.69zm0-11.093a3.41 3.41 0 013.41 3.402 3.41 3.41 0 01-6.82 0 3.41 3.41 0 013.41-3.402zM311.088 71.207c-4.248 0-7.705 3.45-7.705 7.691 0 4.24 3.457 7.69 7.705 7.69 4.249 0 7.706-3.45 7.706-7.69s-3.457-7.69-7.706-7.69zm0 11.094a3.41 3.41 0 01-3.41-3.403 3.41 3.41 0 016.82 0 3.41 3.41 0 01-3.41 3.403z"/><path d="M328.79 68.732a8.867 8.867 0 00-9.304-4.317c-1.228-3.453-4.51-5.883-8.398-5.883s-7.17 2.43-8.398 5.883a8.86 8.86 0 00-9.018 3.857 8.816 8.816 0 00-1.876-7.764 8.834 8.834 0 00.906-10.2 8.867 8.867 0 00-9.305-4.318c-1.227-3.453-4.509-5.883-8.397-5.883s-7.17 2.43-8.398 5.883a8.87 8.87 0 00-9.304 4.317 8.831 8.831 0 00.906 10.2 8.817 8.817 0 00-1.877 7.764 8.861 8.861 0 00-9.018-3.856c-1.227-3.453-4.509-5.883-8.397-5.883s-7.17 2.43-8.398 5.883a8.866 8.866 0 00-9.304 4.317 8.832 8.832 0 00.907 10.2 8.832 8.832 0 00-.907 10.2 8.87 8.87 0 009.304 4.318c1.228 3.453 4.51 5.883 8.398 5.883a8.889 8.889 0 006.599-2.89c6.006 6.28 9.743 14.553 10.461 23.216a2.1 2.1 0 00-.271.225 2.143 2.143 0 00-.626 1.63 28.406 28.406 0 001.035 6.213c-.004.049-.008.098-.008.148v5.976a31.414 31.414 0 00-4.532-5.71c-5.357-5.346-12.284-8.5-19.504-8.882a2.143 2.143 0 00-2.258 2.254c.382 7.207 3.542 14.12 8.899 19.467 5.302 5.291 12.142 8.434 19.283 8.867.085.01.172.016.26.016H258.324c.037 0 .076 0 .114-.002 4.222-.223 8.361-1.562 12.055-3.882 3.998 2.298 8.433 3.642 12.985 3.882.038.002.075.002.112.002h.001c.038 0 .076 0 .114-.002 4.17-.22 8.215-1.35 12.02-3.358a2.142 2.142 0 00.895-2.897 2.15 2.15 0 00-2.903-.894c-2.472 1.305-5.057 2.175-7.712 2.6 1.737-10.78 10.744-19.769 21.544-21.502-.423 2.638-1.29 5.206-2.587 7.663a2.143 2.143 0 00.9 2.897 2.15 2.15 0 002.901-.898c2-3.787 3.125-7.81 3.344-11.959a2.144 2.144 0 00-2.258-2.254c-7.221.381-14.148 3.536-19.504 8.882a31.447 31.447 0 00-4.05 4.955c1.763-14.04 7.72-27.243 17.22-37.939a8.874 8.874 0 007.572 4.176c3.888 0 7.17-2.43 8.398-5.883a8.87 8.87 0 009.304-4.317 8.832 8.832 0 00-.906-10.2 8.832 8.832 0 00.907-10.2zm-29.455 24.69a74.533 74.533 0 00-16.116 32.292 34.326 34.326 0 00-5.455-9.074 8.353 8.353 0 003.877-2.936 8.29 8.29 0 001.084-7.81 8.272 8.272 0 00.265-4.949 24.147 24.147 0 009.067-7.11 23.776 23.776 0 002.228-3.42 8.857 8.857 0 005.05 3.007zm-7.105-9.723c-1.304 5.87-5.632 11.078-11.344 13.49a8.307 8.307 0 00-2.53-1.795c2.324-5.967 7.76-10.58 13.895-11.882l-.02.187zm-18.06 15.285c.098-.017.196-.03.292-.04a2.147 2.147 0 001.001.019c1.07.149 2.03.718 2.702 1.641.935 1.284 1.05 2.888.31 4.293a2.145 2.145 0 000 1.995c.74 1.404.624 3.009-.31 4.292-.934 1.284-2.427 1.89-3.994 1.622a2.148 2.148 0 00-1.901.616c-1.11 1.136-2.676 1.521-4.187 1.032-1.511-.49-2.55-1.72-2.78-3.29a2.142 2.142 0 00-1.174-1.615c-1.425-.702-2.277-2.068-2.277-3.655 0-1.587.852-2.953 2.277-3.655a2.144 2.144 0 001.174-1.614c.23-1.57 1.269-2.8 2.78-3.29.432-.14.868-.21 1.297-.21 1.072 0 2.097.43 2.89 1.241a2.15 2.15 0 001.9.618zm18.246-27.816a8.814 8.814 0 001.859 7.743c-6.851.48-13.151 4.209-17.127 9.757v-8.015a8.843 8.843 0 006.25-5.628 8.863 8.863 0 009.018-3.857zm-29.819-12.486a4.582 4.582 0 01-1.58-6.231 4.6 4.6 0 016.197-1.75 2.15 2.15 0 003.169-1.826 4.59 4.59 0 014.617-4.48 4.59 4.59 0 014.617 4.48 2.15 2.15 0 003.168 1.826 4.6 4.6 0 016.197 1.75 4.58 4.58 0 01-1.58 6.23 2.143 2.143 0 000 3.652 4.58 4.58 0 011.58 6.232 4.599 4.599 0 01-6.196 1.75 2.146 2.146 0 00-3.169 1.827 4.59 4.59 0 01-4.617 4.48 4.59 4.59 0 01-4.617-4.48 2.142 2.142 0 00-2.147-2.086c-.352 0-.703.087-1.022.258a4.598 4.598 0 01-6.196-1.75 4.58 4.58 0 011.579-6.23 2.143 2.143 0 000-3.652zm-5.983 30.45a8.832 8.832 0 00-.907-10.2 8.812 8.812 0 001.877-7.763 8.863 8.863 0 009.018 3.856 8.842 8.842 0 006.25 5.628V93.61a8.343 8.343 0 00-6.097-.352 8.31 8.31 0 00-5.476 5.682 8.298 8.298 0 00-3.722 6.955 8.298 8.298 0 003.722 6.954 8.31 8.31 0 005.476 5.682c.862.28 1.743.416 2.613.416 1.347 0 2.67-.328 3.862-.954 4.023 4.27 6.669 9.517 7.71 15.184a31.527 31.527 0 00-4.103-5.037c-4.624-4.615-10.419-7.594-16.562-8.57a42.045 42.045 0 00-3.846-14.69 42.12 42.12 0 00-7.7-11.286 8.873 8.873 0 007.885-4.461zm-17.702 5.914a4.59 4.59 0 01-4.616-4.481 2.142 2.142 0 00-2.148-2.084c-.35 0-.703.085-1.021.258a4.599 4.599 0 01-6.197-1.75 4.58 4.58 0 011.58-6.23 2.143 2.143 0 000-3.653 4.58 4.58 0 01-1.58-6.23 4.6 4.6 0 016.197-1.75 2.15 2.15 0 003.169-1.826 4.59 4.59 0 014.616-4.481 4.59 4.59 0 014.617 4.48 2.144 2.144 0 001.073 1.797c.646.372 1.44.384 2.096.03a4.6 4.6 0 016.196 1.75 4.58 4.58 0 01-1.58 6.23 2.143 2.143 0 000 3.652 4.58 4.58 0 011.58 6.231 4.599 4.599 0 01-6.196 1.75 2.15 2.15 0 00-3.17 1.826 4.636 4.636 0 01-.336 1.605 2.11 2.11 0 00-.079.192 4.594 4.594 0 01-4.2 2.684zm-4.544 28.764c10.798 1.734 19.804 10.722 21.541 21.5-10.798-1.734-19.804-10.723-21.541-21.5zm26.404 21.466a20.908 20.908 0 011.924-5.648l.076.081c.243.27.49.538.743.802.086.09.173.177.26.265.067.067.132.136.2.203a29.564 29.564 0 00.767.739c.225.21.452.418.683.62l.217.19c.302.261.607.517.917.765a20.94 20.94 0 01-5.787 1.983zm10.86-3.625l-.03-.02a27.412 27.412 0 01-7.423-7.008l-.021-.026c-2.293-3.183-3.89-6.865-4.524-10.787 10.8 1.735 19.805 10.722 21.543 21.5-3.42-.55-6.66-1.828-9.546-3.66zm51.858-60.893a4.58 4.58 0 011.58 6.23 4.599 4.599 0 01-6.197 1.751 2.15 2.15 0 00-3.169 1.826 4.59 4.59 0 01-4.616 4.48 4.59 4.59 0 01-4.617-4.48 2.142 2.142 0 00-2.147-2.084c-.351 0-.703.085-1.022.258a4.599 4.599 0 01-6.196-1.75 4.59 4.59 0 01-.609-2.674c.06-.297.114-.595.162-.894a4.594 4.594 0 012.027-2.664 2.142 2.142 0 000-3.651 4.58 4.58 0 01-1.58-6.23 4.6 4.6 0 016.196-1.751 2.15 2.15 0 003.17-1.826 4.59 4.59 0 014.616-4.48 4.59 4.59 0 014.616 4.48 2.15 2.15 0 003.169 1.826 4.6 4.6 0 016.197 1.75 4.58 4.58 0 01-1.58 6.23 2.144 2.144 0 000 3.653z"/><path d="M246.617 78.898c0-4.24-3.457-7.69-7.705-7.69-4.249 0-7.706 3.45-7.706 7.69s3.457 7.69 7.706 7.69c4.248 0 7.705-3.45 7.705-7.69zm-7.705 3.403a3.41 3.41 0 01-3.41-3.403 3.41 3.41 0 016.82 0 3.41 3.41 0 01-3.41 3.403zM300.174 137.944a2.145 2.145 0 001.508 3.67c.54 0 1.079-.201 1.497-.606.023-.021.044-.043.065-.065a2.14 2.14 0 00-.043-3.031 2.15 2.15 0 00-3.027.032zM270.581 103.75c-.564 0-1.118.23-1.518.629-.4.398-.63.952-.63 1.516 0 .563.23 1.116.63 1.515.401.399.954.628 1.518.628.565 0 1.12-.23 1.52-.628a2.16 2.16 0 00.629-1.515 2.16 2.16 0 00-.63-1.516 2.163 2.163 0 00-1.519-.629zM232.113 51.612a2.147 2.147 0 002.148-2.144 2.144 2.144 0 00-2.148-2.143c-.564 0-1.119.227-1.519.628-.399.399-.628.951-.628 1.515 0 .565.229 1.118.628 1.516.4.399.955.628 1.52.628zM305.53 51.612a2.147 2.147 0 002.148-2.144 2.144 2.144 0 00-2.148-2.143c-.565 0-1.12.227-1.52.628-.398.399-.628.95-.628 1.515s.23 1.118.629 1.516c.4.399.954.628 1.519.628z"/></g><g><path d="M396.492 82.706c-.241 0-.485-.044-.72-.131L385 78.522l-10.773 4.053a2.052 2.052 0 01-1.983-.303 2.323 2.323 0 01-.885-1.902l.315-12.09-6.973-9.587a2.378 2.378 0 01-.34-2.088c.219-.713.756-1.265 1.436-1.477l10.967-3.42 6.464-9.978a2.12 2.12 0 011.772-.987c.708 0 1.371.37 1.772.987l6.464 9.978 10.967 3.42c.68.212 1.217.764 1.436 1.477a2.378 2.378 0 01-.34 2.088l-6.973 9.587.315 12.09c.02.75-.312 1.461-.885 1.902a2.071 2.071 0 01-1.264.434zM370.02 58.55l5.526 7.599c.301.413.458.925.445 1.448l-.25 9.583 8.54-3.212a2.042 2.042 0 011.44 0l8.538 3.212-.248-9.583a2.354 2.354 0 01.445-1.448l5.526-7.599-8.693-2.711a2.156 2.156 0 01-1.164-.895L385 47.036l-5.124 7.908c-.279.432-.69.748-1.164.895l-8.693 2.711zM416.317 61.78c-.447 0-.891-.148-1.263-.434a2.317 2.317 0 01-.885-1.9l.132-5.095-2.937-4.04a2.38 2.38 0 01-.341-2.087c.219-.713.756-1.266 1.436-1.478l4.62-1.44 2.724-4.204a2.118 2.118 0 011.772-.988c.709 0 1.372.369 1.773.988l2.723 4.203 4.62 1.441c.68.212 1.217.765 1.437 1.478a2.38 2.38 0 01-.34 2.088l-2.939 4.039.133 5.094c.02.75-.312 1.46-.885 1.9a2.054 2.054 0 01-1.982.304l-4.54-1.708-4.538 1.708a2.053 2.053 0 01-.72.131zm5.258-6.523c.244 0 .487.043.72.131l2.305.866-.067-2.587a2.354 2.354 0 01.445-1.448l1.491-2.051-2.346-.732a2.159 2.159 0 01-1.165-.895l-1.383-2.135-1.383 2.135a2.16 2.16 0 01-1.165.895l-2.347.732 1.492 2.051c.3.414.459.926.444 1.448l-.067 2.587 2.306-.866c.234-.088.476-.131.72-.131zM353.683 61.78c-.242 0-.485-.043-.72-.131l-4.538-1.708-4.539 1.708a2.053 2.053 0 01-1.983-.303 2.32 2.32 0 01-.885-1.9l.133-5.095-2.938-4.04a2.378 2.378 0 01-.34-2.087c.219-.714.756-1.266 1.436-1.479l4.62-1.44 2.723-4.204a2.12 2.12 0 011.773-.987c.708 0 1.37.369 1.772.987l2.723 4.204 4.62 1.441c.68.212 1.217.765 1.436 1.478a2.38 2.38 0 01-.34 2.088l-2.938 4.038.133 5.094c.02.75-.312 1.462-.885 1.902a2.07 2.07 0 01-1.263.434zm-5.258-6.523c.243 0 .487.043.72.131l2.305.866-.067-2.587a2.36 2.36 0 01.444-1.448l1.492-2.051-2.347-.732a2.156 2.156 0 01-1.164-.895l-1.383-2.135-1.384 2.135a2.16 2.16 0 01-1.164.895l-2.347.732 1.492 2.051c.302.414.458.926.445 1.448l-.067 2.587 2.305-.866c.233-.088.476-.131.72-.131zM385 134.092a2.023 2.023 0 01-.82-.175 2.094 2.094 0 01-.373-.21 2.135 2.135 0 01-.592-.627 2.24 2.24 0 01-.198-.393 2.386 2.386 0 01-.165-.868 2.386 2.386 0 01.629-1.607c.099-.105.208-.2.326-.281a2.072 2.072 0 01.774-.34 2.017 2.017 0 011.24.13c.13.057.255.127.37.21a2.07 2.07 0 01.594.627 2.349 2.349 0 01.363 1.261 2.38 2.38 0 01-.363 1.262 2.135 2.135 0 01-.964.836 2.023 2.023 0 01-.82.175zM385 126.592c-1.187 0-2.148-1.018-2.148-2.273v-37.5c0-1.255.961-2.274 2.148-2.274 1.187 0 2.148 1.019 2.148 2.273v37.501c0 1.255-.961 2.273-2.148 2.273zM421.469 112.11c-.113 0-.224-.01-.337-.029-.7-.117-1.3-.591-1.604-1.269l-3.862-8.593-8.122-4.084c-.64-.322-1.089-.956-1.2-1.697-.11-.74.131-1.491.646-2.006l6.531-6.54 1.163-9.434c.091-.743.523-1.391 1.154-1.731.632-.341 1.381-.33 2.004.029l7.898 4.55 8.84-1.745a2.072 2.072 0 011.914.626c.5.53.722 1.288.593 2.024l-1.65 9.352 4.301 8.355a2.39 2.39 0 01.027 2.12c-.321.667-.934 1.124-1.636 1.221l-8.918 1.23-6.183 6.91a2.09 2.09 0 01-1.56.71zm-9.25-16.656l5.983 3.007c.445.225.805.605 1.018 1.077l2.843 6.328 4.552-5.088a2.11 2.11 0 011.283-.692l6.567-.905-3.168-6.153a2.39 2.39 0 01-.225-1.504l1.215-6.887-6.51 1.286a2.05 2.05 0 01-1.421-.239l-5.817-3.35-.855 6.947a2.316 2.316 0 01-.654 1.356l-4.81 4.817z"/><path d="M388.792 149.97c-.075 0-.149-.004-.224-.012-1.18-.13-2.038-1.246-1.916-2.494 1.408-14.41 7.966-25.358 13.22-32.004 5.675-7.179 11.041-10.994 11.266-11.152.988-.696 2.321-.413 2.98.633.656 1.044.389 2.455-.6 3.15-.203.144-5.069 3.605-10.35 10.284-4.869 6.16-10.946 16.289-12.242 29.556-.114 1.169-1.048 2.039-2.134 2.039zM348.531 112.11c-.585 0-1.15-.254-1.56-.71l-6.182-6.91-8.918-1.23c-.703-.097-1.315-.554-1.637-1.223a2.389 2.389 0 01.028-2.118l4.3-8.355-1.649-9.353a2.356 2.356 0 01.592-2.024 2.072 2.072 0 011.914-.626l8.84 1.746 7.898-4.551a2.046 2.046 0 012.004-.03c.63.34 1.063.989 1.154 1.732l1.163 9.434 6.532 6.54c.515.516.756 1.266.645 2.006-.11.74-.56 1.375-1.2 1.698l-8.122 4.084-3.86 8.592c-.305.677-.905 1.152-1.605 1.269-.113.02-.225.028-.337.028zm-12.996-12.93l6.567.906c.49.068.943.312 1.282.692l4.553 5.088 2.843-6.328a2.215 2.215 0 011.018-1.077l5.981-3.007-4.81-4.817a2.316 2.316 0 01-.653-1.356l-.856-6.947-5.816 3.351a2.05 2.05 0 01-1.422.238l-6.51-1.285 1.215 6.886a2.378 2.378 0 01-.225 1.504l-3.167 6.153z"/><path d="M381.208 149.97c-1.087 0-2.02-.87-2.134-2.04-1.296-13.267-7.373-23.394-12.243-29.555-5.278-6.676-10.146-10.14-10.35-10.284-.988-.696-1.256-2.107-.598-3.151.658-1.045 1.991-1.328 2.98-.632.225.158 5.593 3.978 11.264 11.152 5.255 6.646 11.813 17.593 13.221 32.004.122 1.248-.736 2.365-1.916 2.493-.075.01-.15.013-.224.013zM401.878 149.546c-.3 0-.604-.066-.895-.207-1.078-.523-1.552-1.872-1.056-3.014 3.28-7.564 8.746-12.232 12.754-14.817 4.248-2.738 7.699-3.755 8.078-3.862 1.147-.324 2.324.397 2.63 1.61.305 1.213-.377 2.458-1.523 2.781-.031.01-3.154.906-6.949 3.353-3.496 2.254-8.258 6.31-11.085 12.83-.361.835-1.14 1.326-1.954 1.326zM370.159 149.546c-.814 0-1.593-.491-1.955-1.325-2.826-6.52-7.588-10.577-11.085-12.831-3.794-2.447-6.918-3.344-6.949-3.353-1.146-.324-1.828-1.568-1.521-2.781.305-1.213 1.483-1.934 2.629-1.61.38.107 3.832 1.125 8.078 3.862 4.008 2.585 9.474 7.253 12.754 14.817.495 1.142.022 2.49-1.057 3.014-.29.14-.594.207-.894.207zM430.084 120.68c-1.186 0-2.149-1.018-2.149-2.274v-1.891c0-1.256.963-2.273 2.149-2.273s2.148 1.017 2.148 2.273v1.891c0 1.256-.962 2.273-2.148 2.273zM430.084 130.941c-1.186 0-2.149-1.018-2.149-2.273v-1.892c0-1.255.963-2.273 2.149-2.273s2.148 1.018 2.148 2.273v1.892c0 1.255-.962 2.273-2.148 2.273zM435.828 124.864h-1.788c-1.186 0-2.149-1.018-2.149-2.273 0-1.255.963-2.272 2.149-2.272h1.788c1.187 0 2.149 1.017 2.149 2.272s-.962 2.273-2.149 2.273zM426.128 124.864h-1.788c-1.187 0-2.149-1.018-2.149-2.273 0-1.255.962-2.272 2.149-2.272h1.788c1.187 0 2.149 1.017 2.149 2.272s-.962 2.273-2.149 2.273zM339.916 120.68c-1.187 0-2.149-1.018-2.149-2.274v-1.891c0-1.256.962-2.273 2.149-2.273 1.186 0 2.148 1.017 2.148 2.273v1.891c0 1.256-.962 2.273-2.148 2.273zM339.916 130.941c-1.187 0-2.149-1.018-2.149-2.273v-1.892c0-1.255.962-2.273 2.149-2.273 1.186 0 2.148 1.018 2.148 2.273v1.892c0 1.255-.962 2.273-2.148 2.273zM345.66 124.864h-1.788c-1.187 0-2.149-1.018-2.149-2.273 0-1.255.962-2.272 2.149-2.272h1.788c1.187 0 2.149 1.017 2.149 2.272s-.962 2.273-2.149 2.273zM335.96 124.864h-1.789c-1.186 0-2.148-1.018-2.148-2.273 0-1.255.962-2.272 2.148-2.272h1.79c1.186 0 2.148 1.017 2.148 2.272s-.962 2.273-2.149 2.273z"/></g></g><path d="M175.996 17.288c.004.017.004.033.004.05 0 1.468-1.345 2.662-3 2.662h-10c-1.655 0-3-1.194-3-2.663 0-.016.004-.032.004-.049l1.145-12.895a.548.548 0 01.547-.503h2.355A3.953 3.953 0 01168 0a3.953 3.953 0 013.949 3.89h2.355c.282 0 .523.216.547.503l1.145 12.895zM168 1.104a2.849 2.849 0 00-2.845 2.786h5.69A2.849 2.849 0 00168 1.104zm5.162 7.058c-.838-.668-4.661.817-4.825 2.803-.056.6.12 1.185.487 1.645-.319.33-.547.799-.616 1.392-.167 1.813 3.312 2.993 3.944 2.398.417-.394.266-1.97-.328-3.107 1.605-.98 2.071-4.546 1.338-5.13zm-5.986 4.448c.366-.46.543-1.045.487-1.645-.164-1.986-3.988-3.47-4.826-2.803-.732.585-.266 4.15 1.339 5.13-.594 1.137-.745 2.714-.328 3.107.631.596 4.11-.585 3.943-2.398-.068-.592-.296-1.06-.615-1.39zM159.932 5.417l-2.592-2.363a.217.217 0 00-.236-.033.196.196 0 00-.129.195V4.73h-6.759a.21.21 0 00-.155.06.21.21 0 00-.061.156V6.24c0 .063.02.115.06.155.041.04.093.06.156.06h6.76V7.97c0 .09.042.156.128.196a.21.21 0 00.236-.04l2.593-2.39a.22.22 0 000-.318zM576.905 29.764l-3.63-3.19a.312.312 0 00-.33-.046.265.265 0 00-.18.264v2.042h-9.463a.3.3 0 00-.217.082.279.279 0 00-.085.21v1.75c0 .085.028.155.085.21a.3.3 0 00.217.081h9.463v2.042c0 .122.06.21.18.264.12.05.23.03.331-.054l3.63-3.227a.293.293 0 00.094-.219.283.283 0 00-.095-.21z" fill="#990e94" fill-rule="nonzero"/><path d="M176 5.5a5.5 5.5 0 0111 0c0 3.667-5.5 9.167-5.5 9.167S176 9.167 176 5.5zm3.208 0a2.292 2.292 0 104.584 0 2.292 2.292 0 00-4.584 0z" fill="#FFF" fill-rule="nonzero"/><path d="M187 0h15v2.4h-15V0zm0 5h15v2.4h-15V5zm0 5h15v2.4h-15V10z" fill="#FFF"/><path d="M194.452 17.455L198.907 13l1.697 1.697-4.455 4.455 4.455 4.455-1.697 1.697-4.455-4.455-4.455 4.455-1.697-1.697 4.455-4.455-4.455-4.455L189.997 13l4.455 4.455z" fill="#990e94"/><g fill="#FFF"><path d="M41.833 188.446c-.292.751-1.435 2.161-2.232 2.763-.721.543-1.234.752-1.909.785-.554.026-.784-.022-1.493-.312-5.569-2.28-10.015-5.681-13.545-10.356-1.843-2.442-3.247-4.973-4.208-7.6-.557-1.531-.585-2.197-.125-2.981.199-.33 1.042-1.15 1.659-1.605 1.022-.757 1.495-1.036 1.87-1.116.259-.055.706-.011.992.091.137.047.353.158.475.236.754.497 2.852 3.162 3.537 4.493.393.76.524 1.323.4 1.74-.127.449-.337.685-1.276 1.438-.377.303-.73.614-.785.697-.144.205-.259.607-.259.89.004.658.433 1.85.996 2.768.437.713 1.217 1.626 1.991 2.327.908.827 1.709 1.39 2.614 1.835 1.16.575 1.872.72 2.39.48.132-.058.271-.138.313-.173.04-.036.345-.406.68-.815.641-.803.789-.933 1.228-1.083.56-.19 1.13-.139 1.705.153.437.225 1.389.812 2.003 1.236.81.564 2.539 1.966 2.773 2.245.413.505.485 1.15.206 1.864zM81 177a9 9 0 1118 0c0 6-9 15-9 15s-9-9-9-15zm5.25 0a3.75 3.75 0 107.5 0 3.75 3.75 0 00-7.5 0z" fill-rule="nonzero"/><path d="M137 185.025c0 1.221.99 2.21 2.213 2.21h3.319v3.41a1.105 1.105 0 001.897.774l4.188-4.184h12.17a2.21 2.21 0 002.213-2.21V171.21a2.21 2.21 0 00-2.213-2.21h-21.574a2.21 2.21 0 00-2.213 2.21v13.815zm6.638-6.355a1.383 1.383 0 012.766 0 1.383 1.383 0 01-2.766 0zm4.98 0a1.383 1.383 0 012.765 0 1.383 1.383 0 01-2.766 0zm4.978 0a1.383 1.383 0 012.766 0 1.383 1.383 0 01-2.766 0z"/><path d="M216.961 176.231a.413.413 0 00-.373-.231h-4.879l4.816-7.386a.39.39 0 00.012-.407.414.414 0 00-.36-.207h-6.589a.414.414 0 00-.368.221l-6.177 12a.39.39 0 00.019.389c.075.118.207.19.35.19h4.234l-4.614 10.645a.395.395 0 00.165.496.42.42 0 00.53-.083l13.176-15.2a.391.391 0 00.058-.427zM279.495 186.746c.005.02.005.04.005.059 0 1.762-1.597 3.195-3.563 3.195h-11.874c-1.966 0-3.563-1.433-3.563-3.195 0-.02.005-.04.005-.059l1.36-15.475a.654.654 0 01.65-.604h2.796c.039-2.581 2.126-4.667 4.689-4.667s4.65 2.086 4.69 4.667h2.795c.335 0 .622.26.65.604l1.36 15.475zM270 167.326c-1.84 0-3.34 1.491-3.379 3.341h6.758c-.04-1.85-1.54-3.342-3.379-3.342zm6.13 8.469c-.995-.802-5.535.98-5.73 3.363-.066.72.143 1.422.578 1.974-.378.396-.65.958-.73 1.67-.2 2.176 3.932 3.592 4.682 2.878.496-.472.316-2.364-.39-3.728 1.906-1.177 2.46-5.456 1.59-6.157zm-7.108 5.337a2.77 2.77 0 00.577-1.974c-.194-2.384-4.735-4.165-5.73-3.363-.87.701-.316 4.98 1.59 6.156-.705 1.364-.885 3.256-.39 3.728.75.715 4.882-.702 4.683-2.878-.08-.71-.352-1.272-.73-1.669z" fill-rule="nonzero"/><path d="M338.977 185.295c-1.058-1.37-2.337-2.26-4.17-2.765l-1.716 5.97a1.007 1.007 0 01-2.014 0v-4.75c0-.69-.564-1.25-1.259-1.25s-1.259.56-1.259 1.25v4.75a1.007 1.007 0 01-2.014 0l-1.717-5.97c-1.832.51-3.11 1.395-4.168 2.765-.418.54-.645 1.625-.66 2.205.005.15 0 .325 0 .5v2c0 1.105.901 2 2.014 2h15.608a2.007 2.007 0 002.014-2v-2c0-.175-.005-.35 0-.5-.015-.58-.242-1.665-.66-2.205zM324.53 173.29c0 2.92 1.834 7.21 5.287 7.21 3.394 0 5.287-4.29 5.287-7.21a5.29 5.29 0 00-5.287-5.29 5.29 5.29 0 00-5.287 5.29zM382.505 173.93v.07c.16 4.4.98 8.335 1.355 8.72.87 1.16 3.565 3.07 5.085 4.03.375.24.695.285 1.055.295.36-.01.68-.07 1.055-.295 1.55-.915 4.28-2.87 5.145-4.03.38-.385 1.14-4.32 1.3-8.72l.005-.07a.945.945 0 00-.62-.885c-1.885-.655-4.645-.83-6.88-.83-2.24 0-5 .175-6.88.83-.36.13-.62.48-.62.885zM378 171.045l.005.11c.255 7.04 1.385 13.23 1.995 13.845 1.4 1.86 5.875 4.75 8.295 6.33.575.375 1.125.655 1.705.67.58-.015 1.13-.295 1.705-.67 2.42-1.58 6.895-4.47 8.295-6.33.61-.615 1.74-6.805 1.995-13.845l.005-.11c0-.65-.42-1.215-1-1.42-3.035-1.05-7.39-1.625-11-1.625-3.61 0-7.965.575-11 1.625-.58.205-1 .77-1 1.42zm2.425 1.635c0-.52.335-.965.795-1.13 2.4-.83 5.925-1.05 8.78-1.05 2.855 0 6.38.22 8.78 1.05.46.165.795.61.795 1.13l-.005.085c-.205 5.575-1.17 10.635-1.655 11.125-1.11 1.47-4.65 3.83-6.565 5.08-.455.295-.89.52-1.35.53-.46-.01-.895-.235-1.35-.53-1.915-1.25-5.455-3.61-6.565-5.08-.485-.49-1.45-5.55-1.655-11.125l-.005-.085z"/></g><g fill="#FFF"><path d="M37.825 619h-11.65c-3.956 0-7.175 3.219-7.175 7.175v11.65c0 3.956 3.219 7.175 7.175 7.175h11.65c3.956 0 7.175-3.219 7.175-7.175v-11.65c0-3.956-3.219-7.175-7.175-7.175zm4.868 18.825a4.874 4.874 0 01-4.868 4.868h-11.65a4.874 4.874 0 01-4.868-4.868v-11.65a4.874 4.874 0 014.868-4.868h11.65a4.874 4.874 0 014.868 4.868v11.65zM32 625.3a6.707 6.707 0 00-6.7 6.7c0 3.693 3.006 6.699 6.7 6.699 3.694 0 6.7-3.006 6.7-6.7 0-3.694-3.006-6.7-6.7-6.7zm0 11.092A4.398 4.398 0 0127.607 632 4.398 4.398 0 0132 627.607 4.398 4.398 0 0136.393 632 4.398 4.398 0 0132 636.393zm6.98-13.048c-.444 0-.88.18-1.194.495a1.7 1.7 0 00-.497 1.196c0 .445.181.882.497 1.197.313.314.75.495 1.195.495.446 0 .88-.181 1.196-.495.315-.315.495-.752.495-1.197 0-.446-.18-.882-.495-1.196a1.699 1.699 0 00-1.196-.495zM109.852 639.427a1.918 1.918 0 00-.095-.182c-.486-.875-1.415-1.949-2.785-3.222l-.029-.03-.014-.013-.015-.015h-.015c-.622-.593-1.015-.992-1.18-1.196-.302-.388-.37-.782-.205-1.18.117-.302.554-.938 1.312-1.91.399-.515.715-.928.948-1.24 1.681-2.235 2.41-3.663 2.187-4.285l-.087-.146c-.059-.087-.21-.167-.452-.24-.243-.073-.554-.085-.933-.037l-4.199.03a.545.545 0 00-.291.007l-.19.043-.073.037-.058.044a.648.648 0 00-.16.153 1 1 0 00-.146.255 23.805 23.805 0 01-1.56 3.28c-.36.603-.69 1.125-.991 1.567-.302.442-.554.768-.758.977a5.288 5.288 0 01-.554.503c-.166.126-.292.18-.38.16l-.247-.058a.97.97 0 01-.328-.357 1.6 1.6 0 01-.168-.569 6.268 6.268 0 01-.051-.59c-.005-.166-.002-.399.007-.7.01-.302.015-.506.015-.613 0-.369.007-.77.022-1.202.014-.433.026-.775.036-1.028.01-.253.015-.52.015-.802 0-.282-.017-.503-.051-.663a2.27 2.27 0 00-.153-.467.786.786 0 00-.299-.35 1.685 1.685 0 00-.488-.196c-.515-.117-1.171-.18-1.968-.19-1.808-.02-2.97.097-3.485.35a1.964 1.964 0 00-.554.437c-.175.214-.199.33-.073.35.584.087.996.296 1.24.627l.087.175c.068.126.136.35.204.67.068.321.112.676.131 1.065.049.71.049 1.317 0 1.822a21.71 21.71 0 01-.138 1.18c-.044.283-.11.511-.197.686a2.89 2.89 0 01-.175.32.251.251 0 01-.073.073 1.092 1.092 0 01-.393.074c-.137 0-.302-.069-.496-.205a3.497 3.497 0 01-.605-.561 7.503 7.503 0 01-.707-.999 17.426 17.426 0 01-.817-1.516l-.233-.423a36.367 36.367 0 01-.597-1.188 22.909 22.909 0 01-.671-1.509.961.961 0 00-.35-.466l-.073-.044a.998.998 0 00-.233-.124 1.547 1.547 0 00-.335-.095l-3.995.03c-.408 0-.685.092-.83.277l-.06.087a.472.472 0 00-.043.233c0 .107.03.238.088.394a48.112 48.112 0 001.902 3.965c.685 1.273 1.28 2.299 1.786 3.076a36.32 36.32 0 001.545 2.201c.525.69.872 1.133 1.042 1.327.17.195.304.34.401.437l.365.35c.233.233.576.513 1.028.838.452.326.952.647 1.501.963.55.316 1.188.573 1.917.772.73.2 1.439.28 2.129.241h1.676c.34-.03.598-.136.773-.32l.058-.074a.966.966 0 00.11-.27c.033-.12.05-.255.05-.4-.01-.418.022-.795.095-1.13.073-.335.155-.588.248-.758a1.863 1.863 0 01.562-.641.951.951 0 01.116-.051c.233-.078.508-.003.824.226.316.228.612.51.89.846.276.335.609.711.998 1.13.389.417.729.728 1.02.932l.292.175c.194.117.447.224.758.321.31.097.582.122.816.073l3.732-.058c.37 0 .656-.061.86-.183.204-.121.326-.255.365-.4.039-.146.04-.312.007-.496a1.83 1.83 0 00-.102-.387zM153.42 632.848h2.85v11.733c0 .231.187.419.419.419h4.832a.42.42 0 00.42-.42v-11.677h3.276a.42.42 0 00.416-.372l.498-4.32a.42.42 0 00-.417-.466h-3.773v-2.708c0-.816.439-1.23 1.306-1.23h2.467a.42.42 0 00.42-.42v-3.965a.42.42 0 00-.42-.419h-3.4a3.334 3.334 0 00-.156-.003c-.59 0-2.64.116-4.26 1.606-1.796 1.652-1.546 3.63-1.487 3.972v3.166h-2.992a.42.42 0 00-.419.42v4.264c0 .232.188.42.42.42zM235.987 624.57c-.939-1.115-2.672-1.57-5.98-1.57h-12.013c-3.385 0-5.147.484-6.082 1.672-.912 1.158-.912 2.865-.912 5.226v4.502c0 4.575 1.082 6.898 6.994 6.898h12.012c2.87 0 4.46-.402 5.489-1.386 1.055-1.01 1.505-2.658 1.505-5.512v-4.502c0-2.49-.07-4.207-1.013-5.327zm-8.295 8.2l-5.455 2.851a.838.838 0 01-1.227-.743v-5.684a.839.839 0 011.225-.744l5.455 2.833a.839.839 0 01.002 1.487z"/></g><g fill="#999A9B"><path d="M15.597 223.013c-.646-.84-1.428-1.387-2.548-1.697L12 224.98a.616.616 0 01-1.23 0v-2.915a.769.769 0 00-1.54 0v2.915a.616.616 0 01-1.23 0l-1.05-3.664c-1.12.313-1.9.856-2.547 1.697-.255.331-.394.997-.403 1.353.003.092 0 .2 0 .307V225.9c0 .678.55 1.228 1.23 1.228h9.54c.68 0 1.23-.55 1.23-1.228V224.673c0-.107-.003-.215 0-.307-.01-.356-.148-1.022-.403-1.353zm-8.828-7.367c0 1.792 1.12 4.425 3.231 4.425 2.074 0 3.23-2.633 3.23-4.425A3.239 3.239 0 0010 212.4a3.239 3.239 0 00-3.23 3.246zM24 226.667c0 .736.597 1.333 1.333 1.333h8.334c.736 0 1.333-.597 1.333-1.333v-13.834a.834.834 0 00-1.667 0v.834h-8c-.736 0-1.333.596-1.333 1.333v11.667zm2.4-11.334h6.2c.407 0 .733.327.733.734v3.533a.731.731 0 01-.733.733h-6.2a.731.731 0 01-.733-.733v-3.533c0-.407.326-.734.733-.734zm-.733 7.167a.834.834 0 111.667 0 .834.834 0 01-1.667 0zm3 0a.834.834 0 111.667 0 .834.834 0 01-1.667 0zm3 0a.834.834 0 111.667 0 .834.834 0 01-1.667 0zm-6 3a.834.834 0 111.667 0 .834.834 0 01-1.667 0zm3 0a.834.834 0 111.667 0 .834.834 0 01-1.667 0zm3 0a.834.834 0 111.667 0 .834.834 0 01-1.667 0zM57 219.122c0-.408-.17-.778-.44-1.044l-5.525-4.65a1.465 1.465 0 00-2.07 0l-5.525 4.65c-.27.266-.44.636-.44 1.044v6.711c0 .645.522 1.167 1.167 1.167h11.666c.645 0 1.167-.522 1.167-1.167v-6.71zm-11.025-1.164h8.05a.64.64 0 01.642.642v1.108a.558.558 0 01-.167.386l-1.796 1.81 2.671 2.67a.567.567 0 11-.802.801l-2.75-2.75H48.17l-2.744 2.75a.567.567 0 11-.802-.802l2.668-2.668-1.793-1.811a.562.562 0 01-.167-.423v-1.07a.64.64 0 01.642-.643zM62 223.862c0 .751.61 1.36 1.362 1.36h2.042v2.098a.68.68 0 001.168.476l2.577-2.574h7.49a1.36 1.36 0 001.361-1.36v-8.502c0-.751-.61-1.36-1.362-1.36H63.362A1.36 1.36 0 0062 215.36v8.502zm4.085-3.911a.851.851 0 111.702.002.851.851 0 01-1.702-.002zm3.064 0a.851.851 0 111.702.002.851.851 0 01-1.702-.002zm3.064 0a.851.851 0 111.702.002.851.851 0 01-1.702-.002zM85.003 215.953V216c.107 2.933.654 5.557.904 5.813.58.774 2.376 2.047 3.39 2.687.25.16.463.19.703.197.24-.007.453-.047.703-.197 1.034-.61 2.854-1.913 3.43-2.687.254-.256.76-2.88.867-5.813l.003-.047a.63.63 0 00-.413-.59c-1.257-.436-3.097-.553-4.587-.553-1.493 0-3.333.117-4.586.553a.63.63 0 00-.414.59zM82 214.03l.003.073c.17 4.694.923 8.82 1.33 9.23.934 1.24 3.917 3.167 5.53 4.22.384.25.75.437 1.137.447.387-.01.753-.197 1.137-.447 1.613-1.053 4.596-2.98 5.53-4.22.406-.41 1.16-4.536 1.33-9.23l.003-.073c0-.433-.28-.81-.667-.947C95.31 212.383 92.407 212 90 212s-5.31.383-7.333 1.083a1.009 1.009 0 00-.667.947zm1.617 1.09c0-.347.223-.643.53-.753 1.6-.554 3.95-.7 5.853-.7 1.903 0 4.253.146 5.853.7.307.11.53.406.53.753l-.003.057c-.137 3.716-.78 7.09-1.103 7.416-.74.98-3.1 2.553-4.377 3.387-.303.197-.593.347-.9.353-.307-.006-.597-.156-.9-.353-1.277-.834-3.637-2.406-4.377-3.387-.323-.326-.966-3.7-1.103-7.416l-.003-.057zM105.533 216.333v2.334h-1c-.736 0-1.333.596-1.333 1.333v6.667c0 .736.597 1.333 1.333 1.333H115.2c.737 0 1.333-.597 1.333-1.333V220c0-.737-.596-1.333-1.333-1.333h-1v-2.334a4.333 4.333 0 00-8.667 0zm1.667 2.334v-2.334a2.666 2.666 0 115.333 0v2.334H107.2zm1.333 3.666a1.333 1.333 0 112.057 1.12s.13.787.277 1.714a.5.5 0 01-.5.5h-1a.5.5 0 01-.5-.5l.276-1.714a1.332 1.332 0 01-.61-1.12z"/></g><path d="M19.406 252.784l-5.16-4.526a.675.675 0 010-1.042.926.926 0 011.189 0L20 251.22l4.565-4.005a.926.926 0 011.189 0 .675.675 0 010 1.042l-5.16 4.526A.9.9 0 0120 253a.901.901 0 01-.594-.216z" fill="#FFF" fill-rule="nonzero"/><path d="M59.406 252.784l-5.16-4.526a.675.675 0 010-1.042.926.926 0 011.189 0L60 251.22l4.565-4.005a.926.926 0 011.189 0 .675.675 0 010 1.042l-5.16 4.526A.9.9 0 0160 253a.901.901 0 01-.594-.216zM64.406 297.784l-5.16-4.526a.675.675 0 010-1.042.926.926 0 011.189 0L65 296.22l4.565-4.005a.926.926 0 011.189 0 .675.675 0 010 1.042l-5.16 4.526A.9.9 0 0165 298a.901.901 0 01-.594-.216z" fill="#990e94" fill-rule="nonzero"/><path d="M34.868 302.098c-.231.592-1.136 1.702-1.767 2.176-.571.427-.977.591-1.511.617-.439.021-.621-.016-1.183-.245-4.408-1.795-7.928-4.473-10.722-8.154-1.46-1.922-2.57-3.915-3.332-5.984-.441-1.205-.463-1.73-.1-2.347.158-.26.826-.905 1.314-1.264.81-.595 1.184-.815 1.48-.878.206-.044.56-.01.786.072.11.037.28.124.376.186.597.39 2.258 2.49 2.8 3.537.311.599.415 1.041.318 1.37-.101.353-.268.54-1.011 1.132-.299.239-.579.483-.622.549-.113.16-.204.478-.204.7.003.518.343 1.457.788 2.18.346.561.963 1.28 1.576 1.832.719.651 1.353 1.095 2.07 1.445.918.453 1.481.567 1.892.378a1.4 1.4 0 00.248-.137c.031-.028.273-.319.537-.641.508-.633.625-.735.973-.853.443-.149.895-.109 1.35.12a19 19 0 011.585.974c.641.444 2.01 1.548 2.196 1.768.327.397.384.905.163 1.467zM227.82 5.71l-3.771 3.686a.624.624 0 01-.87 0 .59.59 0 010-.85l3.338-3.26-3.337-3.261a.59.59 0 010-.85.624.624 0 01.869 0l3.771 3.686a.591.591 0 010 .849z" fill="#990e94" fill-rule="nonzero"/><g fill="#FFF" fill-rule="nonzero"><path d="M40 460c22.056 0 40 17.944 40 40s-17.944 40-40 40-40-17.944-40-40 17.944-40 40-40zm16.341 39.443l-22.644-15.44a1.03 1.03 0 00-1.609.85v30.88a1.028 1.028 0 001.609.85l22.644-15.44a1.029 1.029 0 000-1.7zM110 470c16.542 0 30 13.458 30 30s-13.458 30-30 30-30-13.458-30-30 13.458-30 30-30zm11.688 27.875h-9.032c-.319 0-.531-.212-.531-.531v-9.031c0-.638-.425-1.063-1.063-1.063h-2.124c-.638 0-1.063.425-1.063 1.063v9.03c0 .32-.213.532-.531.532h-9.031c-.638 0-1.063.425-1.063 1.063v2.125c0 .637.425 1.062 1.063 1.062h9.03c.32 0 .532.212.532.531v9.031c0 .638.425 1.063 1.063 1.063h2.124c.638 0 1.063-.425 1.063-1.063v-9.03c0-.32.213-.532.531-.532h9.031c.638 0 1.063-.425 1.063-1.063v-2.125c0-.637-.425-1.062-1.063-1.062z"/></g><path d="M23.395 569.854c-.969-1.256-2.141-2.072-3.821-2.535L18 572.792a.923.923 0 01-1.846 0v-4.354A1.15 1.15 0 0015 567.292a1.15 1.15 0 00-1.154 1.146v4.354a.923.923 0 01-1.846 0l-1.574-5.473c-1.68.468-2.852 1.279-3.821 2.535-.383.495-.591 1.49-.605 2.021.005.138 0 .298 0 .458v1.834A1.84 1.84 0 007.846 576h14.308A1.84 1.84 0 0024 574.167v-1.834c0-.16-.005-.32 0-.458-.014-.532-.222-1.526-.605-2.021zm-13.241-11.005c0 2.677 1.68 6.61 4.846 6.61 3.11 0 4.846-3.933 4.846-6.61 0-2.676-2.17-4.849-4.846-4.849a4.848 4.848 0 00-4.846 4.85zM38.754 559.942V560c.133 3.667.817 6.946 1.13 7.266.724.967 2.97 2.56 4.237 3.359.312.2.579.238.879.246.3-.008.566-.059.879-.246 1.292-.763 3.567-2.392 4.288-3.359.316-.32.95-3.6 1.083-7.266l.004-.058a.787.787 0 00-.517-.738c-1.57-.546-3.87-.691-5.733-.691-1.867 0-4.167.145-5.733.691-.3.108-.517.4-.517.738zM35 557.537l.004.092c.212 5.867 1.154 11.025 1.663 11.538 1.166 1.55 4.896 3.958 6.912 5.275.48.312.938.546 1.421.558.483-.012.941-.246 1.42-.558 2.017-1.317 5.747-3.725 6.913-5.275.509-.513 1.45-5.671 1.663-11.538l.004-.092c0-.541-.35-1.012-.833-1.183C51.637 555.48 48.008 555 45 555c-3.009 0-6.638.48-9.167 1.354-.483.171-.833.642-.833 1.183zm2.02 1.363c0-.433.28-.804.663-.942 2-.691 4.938-.875 7.317-.875 2.38 0 5.317.184 7.317.875.383.138.662.509.662.942l-.004.07c-.17 4.647-.975 8.863-1.38 9.272-.924 1.225-3.874 3.191-5.47 4.233-.38.246-.742.433-1.125.442-.383-.009-.746-.196-1.125-.442-1.596-1.042-4.546-3.008-5.47-4.233-.405-.409-1.21-4.625-1.38-9.271l-.004-.071z" fill="#990e94"/><path d="M253.532 11.86c-.793 0-1.5.377-1.953.962l-3.788-2.116a2.474 2.474 0 00-.003-1.63l3.785-2.113c.45.587 1.16.968 1.956.968a2.47 2.47 0 002.465-2.466A2.467 2.467 0 00253.53 3a2.467 2.467 0 00-2.325 3.281l-3.783 2.114a2.453 2.453 0 00-1.956-.968A2.47 2.47 0 00243 9.892a2.466 2.466 0 004.427 1.495l3.785 2.116a2.454 2.454 0 00-.143.822 2.47 2.47 0 002.466 2.465A2.467 2.467 0 00256 14.325a2.47 2.47 0 00-2.468-2.466zm0-8.084c.933 0 1.692.759 1.692 1.692 0 .934-.759 1.693-1.692 1.693a1.694 1.694 0 01-1.693-1.693c0-.933.762-1.692 1.693-1.692zm-8.064 7.809a1.694 1.694 0 01-1.692-1.693c0-.933.759-1.692 1.692-1.692.934 0 1.693.759 1.693 1.692 0 .934-.762 1.693-1.693 1.693zm8.064 4.43a1.694 1.694 0 01-1.693-1.693 1.694 1.694 0 013.385 0c0 .934-.759 1.692-1.692 1.692z" fill="#990e94" fill-rule="nonzero"/><path d="M278 8.796a.717.717 0 01-.217.527l-5.605 5.605-1.053 1.053a.717.717 0 01-.526.216.717.717 0 01-.527-.216l-1.053-1.053-2.802-2.803A.717.717 0 01266 11.6c0-.207.072-.382.217-.527l1.053-1.053a.717.717 0 01.526-.216c.207 0 .382.072.527.216l2.276 2.284 5.078-5.086a.717.717 0 01.527-.217c.206 0 .382.072.526.217l1.053 1.053c.145.144.217.32.217.526zM463 174.592c0 .413-.145.764-.434 1.053l-11.21 11.21-2.106 2.106c-.289.29-.64.434-1.053.434-.412 0-.763-.145-1.052-.434l-2.106-2.106-5.605-5.605a1.433 1.433 0 01-.434-1.053c0-.412.145-.763.434-1.052l2.105-2.106c.29-.29.64-.434 1.053-.434.413 0 .764.145 1.053.434l4.552 4.567 10.158-10.172c.289-.29.64-.434 1.053-.434.413 0 .764.145 1.053.434l2.105 2.105c.29.29.434.64.434 1.053z" fill="#FFF" fill-rule="nonzero"/><path d="M18.878 589.351l-4.666-4.253a.39.39 0 00-.426-.061.353.353 0 00-.23.353v2.722H1.388a.378.378 0 00-.28.11.379.379 0 00-.109.279v2.333c0 .113.036.206.11.28.072.072.166.109.279.109h12.167v2.722c0 .162.077.28.23.352a.38.38 0 00.426-.073l4.667-4.302a.397.397 0 000-.57z" fill="#DFE0E1" fill-rule="nonzero"/><path d="M318.438 23.16a.22.22 0 010-.32l3.425-3.424a.493.493 0 00.137-.32.493.493 0 00-.137-.32l-.64-.639a.493.493 0 00-.319-.137.415.415 0 00-.32.137l-3.424 3.425a.22.22 0 01-.32 0l-3.424-3.425a.493.493 0 00-.32-.137.493.493 0 00-.32.137l-.639.64a.493.493 0 00-.137.319c0 .091.046.228.137.32l3.425 3.424a.22.22 0 010 .32l-3.425 3.424a.493.493 0 00-.137.32c0 .091.046.228.137.32l.64.639a.493.493 0 00.319.137.493.493 0 00.32-.137l3.424-3.425a.22.22 0 01.32 0l3.424 3.425a.493.493 0 00.32.137.493.493 0 00.32-.137l.639-.64a.493.493 0 00.137-.319.493.493 0 00-.137-.32l-3.425-3.424z" fill="#B7B8B9" fill-rule="nonzero"/><path d="M467.583 22.167h-3.541c-.125 0-.209-.084-.209-.209v-3.541c0-.25-.166-.417-.416-.417h-.834c-.25 0-.416.167-.416.417v3.541c0 .125-.084.209-.209.209h-3.541c-.25 0-.417.166-.417.416v.834c0 .25.167.416.417.416h3.541c.125 0 .209.084.209.209v3.541c0 .25.166.417.416.417h.834c.25 0 .416-.167.416-.417v-3.541c0-.125.084-.209.209-.209h3.541c.25 0 .417-.166.417-.416v-.834c0-.25-.167-.416-.417-.416zM513.583 22h-9.166c-.25 0-.417.2-.417.5v1c0 .3.167.5.417.5h9.166c.25 0 .417-.2.417-.5v-1c0-.3-.167-.5-.417-.5z" fill="#717273" fill-rule="nonzero"/><path d="M356.583 11.167h-3.541c-.125 0-.209-.084-.209-.209V7.417c0-.25-.166-.417-.416-.417h-.834c-.25 0-.416.167-.416.417v3.541c0 .125-.084.209-.209.209h-3.541c-.25 0-.417.166-.417.416v.834c0 .25.167.416.417.416h3.541c.125 0 .209.084.209.209v3.541c0 .25.166.417.416.417h.834c.25 0 .416-.167.416-.417v-3.541c0-.125.084-.209.209-.209h3.541c.25 0 .417-.166.417-.416v-.834c0-.25-.167-.416-.417-.416z" fill="#990e94" fill-rule="nonzero"/><path d="M20.135 729.663l5.185-4.558a.446.446 0 01.473-.065c.17.07.257.195.257.377v2.917h13.518c.126 0 .23.04.31.117.081.079.122.178.122.3v2.5c0 .122-.04.221-.121.3a.43.43 0 01-.311.117H26.049v2.916c0 .174-.086.3-.256.378a.433.433 0 01-.473-.078l-5.185-4.61a.418.418 0 01-.135-.312c0-.113.045-.213.135-.3z" fill="#990e94" fill-rule="nonzero"/><g fill="none" fill-opacity="0" fill-rule="nonzero" stroke="#FFF" stroke-width="1.5"><path d="M20.497 774l-9.48-6.464v12.928l9.48-6.464z"/><path d="M14 760.75C6.695 760.75.75 766.695.75 774S6.695 787.25 14 787.25s13.25-5.945 13.25-13.25-5.945-13.25-13.25-13.25z"/></g><g stroke="#990e94" stroke-linecap="round" stroke-linejoin="round" stroke-width="4"><path d="M2 807c3.333-3.333 6.667-5 10-5 5 0 5 10 10 10 3.333 0 6.667-1.667 10-5M32 807c3.333-3.333 6.667-5 10-5 5 0 5 10 10 10 3.333 0 6.667-1.667 10-5M62 807c3.333-3.333 6.667-5 10-5 5 0 5 10 10 10 3.333 0 6.667-1.667 10-5"/></g><use stroke="#990e94" mask="url(#f)" stroke-width="2" stroke-linecap="round" stroke-linejoin="round" stroke-dasharray="6" xlink:href="#a"/><g fill-rule="nonzero"><path d="M21.98 853.428c1.113.492.497 2.18-.59 2.184-2.412.01-4.975-.939-7.292-1.53-1.062-.27-2.123-.552-3.193-.787-.454-.099-.83-.278-1.229-.51-.37-.218-.355-.174-.162-.13-.874-.383-1.25-1.357-.51-2.106.786-.797 2.205-.57 3.141-.289 3.242.975 6.74 1.8 9.835 3.168zm-3.5 22.029c.946.072.965 1.492.05 1.645-2.822.47-5.688.705-8.528 1.053-1.444.176-2.886.359-4.333.502-.196.02-.541.024-.923.03-.113.437-.39.824-.887.847-1.177.058-2.708.254-3.535-.774-.475-.593-.449-1.627.22-2.086 2.059-1.413 5.563-.734 7.951-.882 3.311-.206 6.67-.586 9.985-.335zm2.833 22.261c1.05-.522 2.042.732 1.245 1.611-1.95 2.162-5.292 3.366-7.914 4.466-1.852.776-3.758 1.797-5.8 1.783-1.259-.008-1.558-1.579-.607-2.239 1.515-1.053 3.362-1.396 5.087-2.008 2.806-.997 5.343-2.295 7.99-3.613z" fill="#990e94"/><path d="M23.867 853.428c-1.113.492-.497 2.18.59 2.184 2.412.01 4.975-.939 7.292-1.53 1.062-.27 2.123-.552 3.193-.787.454-.099.831-.278 1.23-.51.37-.218.354-.174.161-.13.874-.383 1.251-1.357.511-2.106-.787-.797-2.206-.57-3.142-.289-3.242.975-6.74 1.8-9.835 3.168zm3.5 22.029c-.945.072-.964 1.492-.049 1.645 2.822.47 5.688.705 8.528 1.053 1.443.176 2.885.359 4.332.502.196.02.542.024.923.03.114.437.392.824.888.847 1.176.058 2.708.254 3.534-.774.476-.593.45-1.627-.219-2.086-2.059-1.413-5.563-.734-7.952-.882-3.31-.206-6.669-.586-9.984-.335zm-2.833 22.261c-1.049-.522-2.042.732-1.245 1.611 1.951 2.162 5.292 3.366 7.914 4.466 1.852.776 3.758 1.797 5.8 1.783 1.26-.008 1.558-1.579.607-2.239-1.515-1.053-3.362-1.396-5.087-2.008-2.806-.997-5.343-2.295-7.989-3.613z" fill="#990e94"/><path d="M71.98 853.428c1.113.492.497 2.18-.59 2.184-2.412.01-4.975-.939-7.292-1.53-1.062-.27-2.123-.552-3.193-.787-.454-.099-.83-.278-1.229-.51-.37-.218-.355-.174-.162-.13-.874-.383-1.25-1.357-.51-2.106.786-.797 2.205-.57 3.141-.289 3.242.975 6.74 1.8 9.835 3.168zm-3.5 22.029c.946.072.965 1.492.05 1.645-2.822.47-5.688.705-8.528 1.053-1.444.176-2.886.359-4.333.502-.196.02-.541.024-.923.03-.113.437-.39.824-.887.847-1.177.058-2.708.254-3.535-.774-.475-.593-.449-1.627.22-2.086 2.059-1.413 5.563-.734 7.951-.882 3.311-.206 6.67-.586 9.985-.335zm2.833 22.261c1.05-.522 2.042.732 1.245 1.611-1.95 2.162-5.292 3.366-7.914 4.466-1.852.776-3.758 1.797-5.8 1.783-1.259-.008-1.558-1.579-.607-2.239 1.515-1.053 3.362-1.396 5.087-2.008 2.806-.997 5.343-2.295 7.99-3.613z" fill="#FFF"/><path d="M73.867 853.428c-1.113.492-.497 2.18.59 2.184 2.412.01 4.975-.939 7.292-1.53 1.062-.27 2.123-.552 3.193-.787.454-.099.831-.278 1.23-.51.37-.218.354-.174.161-.13.874-.383 1.251-1.357.511-2.106-.787-.797-2.206-.57-3.142-.289-3.242.975-6.74 1.8-9.835 3.168zm3.5 22.029c-.945.072-.964 1.492-.049 1.645 2.822.47 5.688.705 8.528 1.053 1.443.176 2.885.359 4.332.502.196.02.542.024.923.03.114.437.392.824.888.847 1.176.058 2.708.254 3.534-.774.476-.593.45-1.627-.219-2.086-2.059-1.413-5.563-.734-7.952-.882-3.31-.206-6.669-.586-9.984-.335zm-2.833 22.261c-1.049-.522-2.042.732-1.245 1.611 1.951 2.162 5.292 3.366 7.914 4.466 1.852.776 3.758 1.797 5.8 1.783 1.26-.008 1.558-1.579.607-2.239-1.515-1.053-3.362-1.396-5.087-2.008-2.806-.997-5.343-2.295-7.989-3.613z" fill="#FFF"/></g><g transform="matrix(-1 0 0 1 70 906)"><use stroke="#990e94" mask="url(#g)" stroke-width="4" fill="#F2FAFC" stroke-dasharray="6" xlink:href="#b"/><path d="M44.8 37.24a1.17 1.17 0 00.108-.573c-.006-.228-.055-.4-.146-.514-2.024-1.31-4.804-3.035-8.34-5.177-3.538-2.142-5.81-3.468-6.814-3.976l-1.038.667c2.571 1.945 4.833 3.579 6.784 4.9a70.514 70.514 0 006.275 3.776c-3.093 2.314-7.649 4.812-13.666 7.494L28.531 45c4.712-1.157 10.135-3.744 16.27-7.76z" fill="#990e94" fill-rule="nonzero"/></g><g transform="translate(70 906)"><use stroke="#990e94" mask="url(#h)" stroke-width="4" fill="#F2FAFC" stroke-dasharray="6" xlink:href="#c"/><path d="M44.8 37.24a1.17 1.17 0 00.108-.573c-.006-.228-.055-.4-.146-.514-2.024-1.31-4.804-3.035-8.34-5.177-3.538-2.142-5.81-3.468-6.814-3.976l-1.038.667c2.571 1.945 4.833 3.579 6.784 4.9a70.514 70.514 0 006.275 3.776c-3.093 2.314-7.649 4.812-13.666 7.494L28.531 45c4.712-1.157 10.135-3.744 16.27-7.76z" fill="#990e94" fill-rule="nonzero"/></g><g transform="matrix(-1 0 0 1 210 906)"><use stroke="#990e94" mask="url(#i)" stroke-width="4" fill="#FFF" stroke-dasharray="6" xlink:href="#d"/><path d="M44.8 37.24a1.17 1.17 0 00.108-.573c-.006-.228-.055-.4-.146-.514-2.024-1.31-4.804-3.035-8.34-5.177-3.538-2.142-5.81-3.468-6.814-3.976l-1.038.667c2.571 1.945 4.833 3.579 6.784 4.9a70.514 70.514 0 006.275 3.776c-3.093 2.314-7.649 4.812-13.666 7.494L28.531 45c4.712-1.157 10.135-3.744 16.27-7.76z" fill="#990e94" fill-rule="nonzero"/></g><g transform="translate(210 906)"><use stroke="#990e94" mask="url(#j)" stroke-width="4" fill="#FFF" stroke-dasharray="6" xlink:href="#e"/><path d="M44.8 37.24a1.17 1.17 0 00.108-.573c-.006-.228-.055-.4-.146-.514-2.024-1.31-4.804-3.035-8.34-5.177-3.538-2.142-5.81-3.468-6.814-3.976l-1.038.667c2.571 1.945 4.833 3.579 6.784 4.9a70.514 70.514 0 006.275 3.776c-3.093 2.314-7.649 4.812-13.666 7.494L28.531 45c4.712-1.157 10.135-3.744 16.27-7.76z" fill="#990e94" fill-rule="nonzero"/></g><g transform="translate(700)" fill-rule="nonzero"><path d="M12.616 0H5.353A5.359 5.359 0 000 5.353v7.263a5.359 5.359 0 005.353 5.352h7.263a5.359 5.359 0 005.352-5.352V5.353A5.359 5.359 0 0012.616 0zm3.545 12.616a3.545 3.545 0 01-3.545 3.545H5.353a3.545 3.545 0 01-3.545-3.545V5.353a3.545 3.545 0 013.545-3.545h7.263a3.545 3.545 0 013.545 3.545v7.263z" fill="url(#k)"/><path d="M8.984 4.337a4.653 4.653 0 00-4.647 4.647 4.653 4.653 0 004.647 4.648 4.653 4.653 0 004.648-4.648 4.653 4.653 0 00-4.648-4.647zm0 7.487a2.84 2.84 0 110-5.68 2.84 2.84 0 010 5.68z" fill="url(#l)"/><circle fill="url(#k)" cx="13.641" cy="4.372" r="1.114"/></g><g fill="#990e94" fill-rule="nonzero"><path d="M753.658 1.749a5.75 5.75 0 114.684 10.502 5.75 5.75 0 01-4.684-10.502zm.611 1.37a4.25 4.25 0 103.462 7.763 4.25 4.25 0 00-3.462-7.764zm19.221 41.26l-1.37.611-3.054-6.85 1.37-.61 3.054 6.85zm-4.887-10.96l-1.37.612-3.055-6.85 1.37-.61 3.055 6.849zm-4.887-10.959l-1.37.611-3.055-6.85 1.37-.61 3.055 6.85zM792.407 18.348a5.751 5.751 0 111.36.635l-1.996 4.27-1.359-.635 1.995-4.27zm1.826-.79a4.25 4.25 0 10-1.032-.483l1.032.482zm-12.621 27.439l-1.359-.635 3.175-6.795 1.359.635-3.175 6.795zm5.08-10.872l-1.36-.635 3.175-6.795 1.36.635-3.175 6.795z"/></g><g><path d="M287.184 537.561c-5.083 6.566-2.19 27.123.93 33.603.19 2.302.663 4.557 1.42 6.766 2.336 5.552 7.014 9.657 13.222 12.66 4.006 2.306 36.146 5.545 51.97 3.991 18.181-1.52 82.693-11.135 109.462-26.629 2.396-1.386 2.479-3.59 1.285-5.09 3.388-2.044 7.783-4.892 9.493-7.929 1.474-2.791.74-6.273-.712-9.003-.275-2.711-1.965-5.19-3.948-7.62-3.36-6.23-13.186-9.695-24.415-11.447-.09-.41.068-1.07-.341-1.64 3.289.306 6.583.61 9.92 1.12 3.01.35 6.106 1.11 9.203 1.87.605.112.806-.341.195-.456-6.972-2.453-14.343-3.991-22.151-4.821-.323-.16-.611-.112-.654-.319-34.66-8.482-51.289-8.733-105.732-3.71-2.042.188-4.164.432-6.333.737-16.03 2.253-34.596 7.78-42.814 17.917" fill="#FFF"/></g>

    <g fill-rule="nonzero">
        <g transform="translate(285 606)"><use fill="#000" filter="url(#m)" xlink:href="#n"/><use fill="#FFF" xlink:href="#n"/></g>
        <g transform="translate(285 606)"><use fill="#000" filter="url(#o)" xlink:href="#p"/><use fill="#FFF" xlink:href="#p"/></g>
        <g transform="translate(285 606)"><use fill="#000" filter="url(#q)" xlink:href="#r"/><use fill="#FFF" xlink:href="#r"/></g>
        <g transform="translate(285 606)"><use fill="#000" filter="url(#s)" xlink:href="#t"/><use fill="#FFF" xlink:href="#t"/></g>
        <g transform="translate(285 606)"><use fill="#000" filter="url(#u)" xlink:href="#v"/><use fill="#FFF" xlink:href="#v"/></g>
    </g>

    <g fill="#FFF"><path d="M219.267 283.974c-1.318-.138-2.506-.462-3.523-1.258-.127-.099-.257-.194-.372-.305-.445-.427-.49-.917-.138-1.422.302-.432.808-.547 1.333-.3.102.049.2.109.292.173 1.896 1.303 4.5 1.339 6.404.059.189-.145.39-.263.624-.323.454-.117.877.05 1.121.448.279.454.275.896-.068 1.249-.526.54-1.16.93-1.863 1.204-.665.257-1.393.387-2.114.473.109.119.16.177.228.245.98.984 1.962 1.963 2.938 2.95.332.336.402.753.219 1.144-.2.427-.648.708-1.088.678-.278-.02-.495-.158-.688-.352-.738-.743-1.49-1.473-2.215-2.23-.21-.22-.312-.179-.497.012-.744.765-1.499 1.519-2.259 2.268-.34.336-.747.397-1.142.204-.42-.203-.688-.633-.668-1.064.014-.292.158-.515.358-.715.969-.967 1.935-1.937 2.901-2.906.064-.064.124-.133.217-.232zm.803-3.37c-2.351-.008-4.279-1.957-4.265-4.311a4.31 4.31 0 014.317-4.293c2.379.006 4.288 1.952 4.276 4.358-.012 2.35-1.953 4.255-4.328 4.247zm2.137-4.306a2.096 2.096 0 00-2.103-2.1 2.099 2.099 0 00-2.107 2.126 2.096 2.096 0 002.118 2.084 2.091 2.091 0 002.092-2.11zM266.378 273.27c-1.641-1.514-3.683-2.27-6.121-2.27-2.563 0-4.748.86-6.55 2.581-1.804 1.723-2.707 3.863-2.707 6.426 0 2.457.86 4.568 2.574 6.338 1.722 1.77 4.036 2.655 6.947 2.655 1.756 0 3.478-.36 5.167-1.083.55-.235.819-.867.595-1.421a1.098 1.098 0 00-1.454-.595c-1.47.631-2.909.947-4.311.947-2.233 0-3.962-.68-5.189-2.041-1.223-1.359-1.836-2.956-1.836-4.789 0-1.99.658-3.65 1.968-4.983 1.308-1.329 2.92-1.997 4.83-1.997 1.758 0 3.245.547 4.457 1.641 1.212 1.095 1.817 2.472 1.817 4.131 0 1.135-.279 2.082-.833 2.835-.555.756-1.131 1.131-1.73 1.131-.323 0-.484-.173-.484-.521 0-.283.022-.614.062-.996l.683-5.585h-2.35l-.15.548c-.599-.489-1.256-.735-1.969-.735-1.13 0-2.1.452-2.904 1.351-.808.9-1.208 2.06-1.208 3.478 0 1.384.356 2.504 1.072 3.352.716.852 1.575 1.274 2.581 1.274.9 0 1.667-.378 2.306-1.13.481.723 1.19 1.083 2.126 1.083 1.377 0 2.567-.599 3.57-1.8 1.002-1.197 1.505-2.643 1.505-4.336 0-2.145-.819-3.977-2.464-5.49zm-5.412 8.448c-.415.559-.91.841-1.487.841-.393 0-.71-.205-.948-.617-.242-.41-.363-.921-.363-1.534 0-.757.169-1.366.506-1.83.338-.462.757-.697 1.256-.697.434 0 .82.173 1.157.522.338.349.507.811.507 1.391a3.178 3.178 0 01-.628 1.924z" fill-rule="nonzero"/><path d="M308.905 285.275a1.233 1.233 0 00-.061-.117c-.313-.563-.91-1.253-1.79-2.072l-.02-.018-.008-.01-.01-.01h-.01c-.4-.38-.652-.636-.758-.768-.194-.25-.238-.503-.132-.759.075-.194.357-.603.844-1.228a68.5 68.5 0 00.609-.796c1.08-1.437 1.55-2.355 1.406-2.755l-.056-.094c-.038-.056-.135-.108-.29-.155-.157-.046-.357-.054-.6-.023l-2.7.019a.35.35 0 00-.187.004l-.122.029-.047.023-.037.028a.417.417 0 00-.103.099.643.643 0 00-.094.164 15.303 15.303 0 01-1.003 2.108c-.23.388-.443.723-.637 1.008a4.848 4.848 0 01-.487.628 3.4 3.4 0 01-.357.323c-.106.081-.187.116-.243.103a6.867 6.867 0 01-.16-.037.623.623 0 01-.21-.23 1.028 1.028 0 01-.108-.366 4.03 4.03 0 01-.033-.38 7.93 7.93 0 01.005-.45c.006-.193.01-.324.01-.393 0-.237.004-.495.013-.773.01-.278.017-.498.024-.66.006-.163.009-.335.009-.516s-.011-.323-.033-.426a1.459 1.459 0 00-.098-.3.505.505 0 00-.192-.225 1.083 1.083 0 00-.314-.127c-.331-.075-.753-.115-1.265-.122-1.162-.012-1.91.063-2.24.225-.131.069-.25.163-.356.281-.113.138-.128.213-.047.225.375.056.64.19.796.403l.057.113c.043.081.087.225.13.43.045.207.073.435.085.685.031.456.031.847 0 1.171-.031.325-.06.578-.089.76a1.52 1.52 0 01-.239.646.161.161 0 01-.047.047.702.702 0 01-.253.047c-.087 0-.193-.044-.318-.131a2.248 2.248 0 01-.39-.361 4.823 4.823 0 01-.454-.642c-.169-.275-.344-.6-.525-.975l-.15-.272c-.093-.175-.221-.43-.384-.763a14.727 14.727 0 01-.43-.97.618.618 0 00-.226-.3l-.047-.029a.641.641 0 00-.15-.08.995.995 0 00-.215-.06l-2.568.019c-.262 0-.44.059-.534.178l-.038.056a.303.303 0 00-.028.15c0 .069.019.153.056.253.375.88.783 1.73 1.223 2.55.44.818.823 1.477 1.148 1.976.325.5.656.972.994 1.416.337.443.56.727.67.852.11.126.195.22.257.282l.235.224c.15.15.37.33.66.54.291.209.613.415.966.618s.764.368 1.232.497c.469.128.925.18 1.369.154h1.077c.219-.019.385-.087.497-.206l.037-.047a.621.621 0 00.07-.173.952.952 0 00.033-.258c-.006-.268.014-.51.061-.726.047-.215.1-.378.16-.487a1.198 1.198 0 01.36-.413.612.612 0 01.075-.032c.15-.05.327-.002.53.145s.394.328.572.544c.178.215.392.457.642.726.25.269.468.468.656.6l.187.112c.125.075.288.144.488.206.2.063.374.078.524.047l2.4-.037c.237 0 .421-.04.552-.117.132-.079.21-.165.235-.258a.726.726 0 00.004-.319 1.176 1.176 0 00-.065-.248zM336.258 280.522h1.754v7.22c0 .142.115.258.258.258h2.974a.258.258 0 00.258-.258v-7.186h2.016a.258.258 0 00.256-.229l.307-2.658a.258.258 0 00-.257-.288h-2.322v-1.666c0-.502.27-.757.804-.757h1.518a.258.258 0 00.258-.258v-2.44a.258.258 0 00-.258-.258h-2.092l-.096-.002c-.363 0-1.625.071-2.622.988-1.105 1.017-.951 2.234-.915 2.445v1.948h-1.84a.258.258 0 00-.259.258v2.624c0 .143.116.259.258.259z"/><path d="M380.995 282.276l-.823-.655c-.25-.213-.593-.495-.593-1.01 0-.517.343-.846.64-1.15.958-.775 1.916-1.599 1.916-3.334 0-1.785-1.095-2.724-1.62-3.17h1.415l1.485-.957h-4.498c-1.234 0-3.013.3-4.315 1.403-.981.868-1.46 2.066-1.46 3.145 0 1.83 1.37 3.686 3.789 3.686.228 0 .478-.023.73-.046-.113.282-.227.517-.227.915 0 .727.364 1.173.684 1.595-1.027.073-2.946.19-4.36 1.082-1.348.822-1.758 2.018-1.758 2.863 0 1.738 1.597 3.357 4.908 3.357 3.926 0 6.004-2.229 6.004-4.436 0-1.621-.912-2.419-1.917-3.288zm-2.99-2.7c-1.965 0-2.854-2.605-2.854-4.177 0-.612.113-1.244.501-1.737a2.112 2.112 0 011.6-.775c1.893 0 2.875 2.629 2.875 4.319 0 .423-.045 1.172-.57 1.714a2.302 2.302 0 01-1.552.657zm.022 9.44c-2.442 0-4.017-1.198-4.017-2.866 0-1.666 1.46-2.23 1.962-2.416.959-.331 2.192-.377 2.398-.377.228 0 .342 0 .524.023 1.736 1.268 2.49 1.9 2.49 3.1 0 1.454-1.165 2.536-3.357 2.536zm9.24-9.47h2.294v1.138h-2.295v2.292h-1.129v-2.292h-2.283v-1.138h2.283v-2.278h1.13v2.278z" fill-rule="nonzero"/></g>
    <path fill="#EC7054" d="M388 337h17v15h-17z"/></g></svg>